<svg xmlns="http://www.w3.org/2000/svg" viewBox="0 0 64 508.4">
  <defs>
    <style>
      .a {
        fill-rule: evenodd;
      }
    </style>
  </defs>
  <title>splatter-bottom</title>
  <g>
    <g>
      <path class="a" d="M55.6,1.7h.1C55.7,1.8,55.6,1.8,55.6,1.7Z"/>
      <path class="a" d="M54.3,1.7c-.1.1-.3,0,0,0Z"/>
      <path class="a" d="M55.4,1.8a.1.1,0,0,1,.1-.1A.1.1,0,0,1,55.4,1.8Z"/>
      <path class="a" d="M54.3,1.8h0Z"/>
      <path class="a" d="M56.4,1.8h-.1C56.2,1.7,56.4,1.8,56.4,1.8Z"/>
      <path class="a" d="M55.4,1.8Z"/>
      <path class="a" d="M56.1,1.8h0Z"/>
      <path class="a" d="M55.2,1.9h0Z"/>
      <path class="a" d="M56.3,1.9c0,.1.1.1.1,0S56.2,2.1,56.3,1.9Z"/>
      <path class="a" d="M57.1,2a.1.1,0,0,1,.1-.1A.1.1,0,0,1,57.1,2Z"/>
      <path class="a" d="M57.6,2c0-.1.1-.1.1,0Z"/>
      <path class="a" d="M57.4,2h0Z"/>
      <path class="a" d="M56.9,2.1Z"/>
      <path class="a" d="M60.9,3.2h0Z"/>
      <path class="a" d="M26.8,3.3h0Z"/>
      <path class="a" d="M24.9,3.4a.1.1,0,0,1,.1-.1C25,3.4,25,3.4,24.9,3.4Z"/>
      <path class="a" d="M23,4.2h0Z"/>
      <path class="a" d="M11.9,5.1h0Z"/>
      <path class="a" d="M14.4,5h.1C14.5,5.2,14.3,5.1,14.4,5Z"/>
      <path class="a" d="M14.4,5.2c-.1,0-.1.1,0,.1s-.3,0-.4,0h-.9a.5.5,0,0,1,.6,0C14,5.1,14,5.2,14.4,5.2Z"/>
      <path class="a" d="M17.2,5.3c0,.2.1.3.4.3a.8.8,0,0,1-.7,0c-.1-.1.2-.2,0-.2Z"/>
      <path class="a" d="M12.7,5.5h0Z"/>
      <path class="a" d="M18,5.4c0,.1.2,0,.2.2H18C17.9,5.6,18,5.5,18,5.4Z"/>
      <path class="a" d="M14.1,5.5h0Z"/>
      <path class="a" d="M19,5.6h.1C19.1,5.7,19,5.6,19,5.6Z"/>
      <path class="a" d="M18.6,5.6h0Z"/>
      <path class="a" d="M19.3,5.9c-.3.2-1,.3-1.1-.1H18c-.1-.2-.4,0-.6-.1h1.1c.2,0,0,.1.1.1Z"/>
      <path class="a" d="M20,5.9h-.5c0-.1.4,0,.4-.2S20,5.8,20,5.9Z"/>
      <path class="a" d="M17.6,6.2c-.2.2-.8.1-.9.1h-.1C16.9,6,17.3,6.2,17.6,6.2Z"/>
      <path class="a" d="M14.9,6.7h-.4C14.5,6.6,14.8,6.6,14.9,6.7Z"/>
      <path class="a" d="M44.6,6.8h.1S44.7,6.9,44.6,6.8Z"/>
      <path class="a" d="M15.6,4.3c.1-.1-.1.2,0,0Z"/>
    </g>
    <path class="a" d="M64,5.7c0-.1-.1-.2-.1-.3s-.3-.4-.6-.5h0c-.1-.1-.1-.2-.3-.3l-.6-.3a.1.1,0,0,0,.1-.1L62,3.9V3.7h-.5c0-.1,0-.2-.1-.2h-.3c0-.1.2.1.1-.1h-.4c-.1-.1-.2-.1-.2-.3s-.2.1-.3,0,0-.2-.2-.2.1,0,.1.2-.5-.1-.5-.4-.2.1-.4,0-.1,0-.1-.2h-.3c0-.1-.2,0-.2-.1s-.1.2-.2.1.2-.1.1-.2h-.1c-.2-.1-.2.1-.4.1s0-.1-.1-.2-.1.3-.2.2.2,0,.2-.2h-.3c-.2.1-.3-.1-.5.1s.1.1,0,.1,0-.1-.1-.3h-.6L56.1,2c-.1,0-.1,0-.1.1s-.2-.1-.2,0-.1-.1-.2-.1.1-.1,0-.1h-.5c0-.1,0-.1-.1-.2s0,.2-.1.3l-.2-.2c0,.2-.2.1-.3.1s0,.1-.1.1-.1,0-.2,0-.5-.1-.7-.2l-2.2.2V1.9l-.3-.4c-.1-.2-.4-.3-.4-.7s-.2-.1-.3-.2L49.6.3a1.2,1.2,0,0,1-.8-.2H46.9c-.2.2-.4,0-.7,0a4.3,4.3,0,0,1-1.6.1l-.3.2H44l-.5.2c-.2-.1-.7.2-1,.1h-.1c-.1-.1-.3.1-.4.1h-.2s0,.2-.1.1-.4.1-.6.1h-.3c0,.2-.1.1-.2.2a1,1,0,0,0-.8.2.8.8,0,0,0-.7.1c-.1,0-.2-.1-.3,0l-.8.3c-.3-.1-.6.1-.8.1s-.1.1-.2.1-.2,0-.3,0,0,.2-.2.1-.4.2-.6,0a2,2,0,0,1-1.1.3h-.2c-.4,0-.5.2-.9.1l-1.2.4h-.2l-1.8.4a1.7,1.7,0,0,1-1,.1,20.1,20.1,0,0,0-2.4.1c-.2-.1-.3,0-.5-.2s-.2,0-.1.2-.2,0-.3,0-.5.1-.5.3,1,.2,1.5.4a2.3,2.3,0,0,1-1.4.1h-.7c.2,0,.3,0,.4-.2s-.3-.1-.3-.2-.3,0-.4,0H21.4a20.1,20.1,0,0,0-4.3.1h-.8c-.1,0-.1.1-.2.2h-.2c.2,0,.3,0,.3.1l-.4.2c-.1-.2-.3-.1-.4,0s.2-.1.3,0-.4.1-.6.1-.7-.1-.7.2h.1c.3,0,.7-.2.8,0h.5c-.1,0-.1-.2,0-.2s.4.1.7.1h.3c.1.1.5-.1.5.1v.2c.3.1.3-.2.4-.3s.3.1.3.3.5.1.7.1h.8a2.9,2.9,0,0,0,.8.4l.7-.3a2.8,2.8,0,0,0,1.1-.4c.2,0,.1.1.3,0s.1-.1.3-.1a.2.2,0,0,1-.1.3c0,.2.2.2.1.3h-.6c0,.2.5,0,.6.2s-.6.2-.8,0-.2,0-.3.1l-.6.2h-.2c0,.2-.5,0-.5.2h.4c-.1,0-.3,0-.1.1s-.8.4-1.3.3.1-.1.1-.2-.6,0-1-.1h-.3c0,.1,0,.2-.1.2s-.5-.1-.5.1,1.1,0,1.5.1a1.7,1.7,0,0,1-1,.1h-.2c-.3-.2-.5.1-.8,0s-.6.1-.8.1H14.5c0-.3-.4-.2-.5-.3s.2-.1.4-.1l.9-.2c.1-.1.5,0,.5-.3s-.4.1-.4-.2h-.2c.1-.1.3,0,.3-.2s.3-.1.4,0-.2,0-.1.2h.5c-.2,0,0-.2,0-.2s-.3.1-.4-.1h.5c.1-.2-.3-.1-.4-.1H14.9c.2,0,.4.2.6.1s.2,0,.1.1.2-.2.2,0h-.4l-.4.2h-.5l.3.2h-.9c0-.1.1-.1.1-.2s-.7.2-1.2.2-.6-.1-1-.1-.4.2-.4,0,.9,0,1.3-.2.5.2.7,0-.2,0-.1-.1h-.9c.2-.1,0-.3,0-.3h.2c-.2-.2-.6-.2-.6.1h-.8c-.1-.2.2-.2.3-.2h1.4a.5.5,0,0,1,.4-.2h.5c.1-.2.3-.2.4-.3s0-.1.1-.2H15c.1-.2.4-.1.6-.2s-.1-.2-.3-.2h-.4c0-.1-.4,0-.4-.1H10.6c-1.1.2-2.5,0-3.6.2L4.2,4H1.3A2.8,2.8,0,0,1,0,4V508.4H64V5.7ZM16.6,4.6c0-.2.1-.1.2-.1h-.2a.4.4,0,0,1,.5-.2c.2.1.5.1.4.5A1.4,1.4,0,0,1,16.6,4.6ZM15,5.9h.1c.1.1,0,.1-.1.1ZM12.3,4.5h-.2S12.4,4.3,12.3,4.5Zm0,.2c.1.2-.2.1-.3.1S12.2,4.8,12.3,4.7Zm46-2.2c.1,0,.1.2-.1.1A.1.1,0,0,0,58.3,2.5Zm-.7-.1s-.3.1-.3-.1Zm-3-.3h.1c0,.1-.1,0-.2,0ZM53.5,2c0,.1-.1,0-.1,0Zm-.1.2h0Zm-.1,0h0Zm-.3.2h0Zm-1,0h0Zm.4,1.8c.1,0,.1-.1.2-.2h.3c.1,0,.3,0,.3.2s-.3,0-.2-.1-.1.1-.2.1-.9.3-1.4.3.2-.3.1-.4S52,4.3,52.4,4.2Zm-.3,2c-.1.2-.2,0-.2,0S52,6.2,52.1,6.2Zm-.6-3.3c-.1-.1,0-.1.1-.1A.1.1,0,0,1,51.5,2.9Zm.1-.7h0Zm0,.4c-.1.1-.3-.1,0,0Zm-.3-.4h0Zm-27,2.1h-.2C24.1,4.3,24.2,4.3,24.3,4.3Zm-2.1.2h-.6c-.2.1-.2-.1-.4-.1s.4-.2.5-.4h1.7c.1,0,.2,0,.2.1s.4-.1.5,0l-.4.2h-.2ZM24,4.3c0,.1,0,.1-.1.1S24,4.4,24,4.3Zm-.5.8c0,.1-.1.1-.2.2s0-.2-.2-.1-.2-.3-.1-.4ZM51,5.6c.2-.1-.1.1,0,0Zm-.3-.1h0Zm-1-.4c.1.2-.4.3-.5.2S49.6,5.2,49.7,5.1Zm-.8.5h-.3A.1.1,0,0,1,48.9,5.6Zm.3.1h0c.1,0,.4-.1.6.1s0,.2-.1.4h-.1c-.1.1-.2,0-.3,0s-.7-.2-.8-.5Zm-1.1.2h0Zm-30.7,1h0Zm-2,.4c-.1.1-.3-.1,0,0Zm-.3,0c.1,0,0,.1,0,0Zm29-.4H44c.1-.1.3,0,.3-.2h.6c.4.1.7-.2,1.1-.2s-.5.2-.7.3.1.1.1.1h.9l.5-.3c.1-.2.4-.2.5-.4s.2.4.5.3a.4.4,0,0,0-.1.3H46.6c-.1.1-.4.3-.6.2L45,7a.8.8,0,0,1-.6.2c-.2,0-.4.2-.6.1S44.2,7.3,44.1,6.9ZM12.7,6.2h0Zm-.3.4h.9c.2.1.5,0,.5.2H11.7c0-.1.1-.1.2-.1s-.5,0-.6-.1S12.1,6.5,12.4,6.6Zm30.2.7c-.1-.2.2-.1.2-.2S42.7,7.3,42.6,7.3ZM11.2,5.5h.5c.1,0,.5-.1.5.1h-.8c-.1-.1-.3.1-.4-.1Zm-.5.5h-.5a.1.1,0,0,0,0-.2C10.3,6,10.6,5.9,10.7,6Zm-.4-.7c0,.1-.4.1-.4,0S10.2,5.3,10.3,5.3ZM10,6.4h1.1c0,.2-.4,0-.4.2a1.5,1.5,0,0,1-1-.2ZM40.5,8.1c.1-.1-.2-.1,0-.2s.6-.2.9-.1l.3-.3c.3,0,.2-.2.5-.2l.3.2h.7V7h.4c.1.1-.1.1-.1.2h.2c0,.2-.1,0-.2,0l-.3.3c-.2.1-.5.1-.6.3s-.5.2-.9.2l-.4.2c-.3-.1-.7.1-1,0l-1.4.2C39.2,8,39.8,8.3,40.5,8.1ZM38.7,8c0,.2-.4,0-.4.2s.4,0,.6.1-.2.1-.2.3h-.5c-.1,0,0-.1,0-.1s-.1-.3-.1-.4S38.4,8,38.7,8Zm-3.2.9h1c.1.1.1.1.1.3h-.2c-.1,0-.2.2-.4,0l-1,.2C35.1,8.9,35.3,9,35.5,8.9Z"/>
  </g>
</svg>
