<svg xmlns="http://www.w3.org/2000/svg" viewBox="0 0 89 26">
  <defs>
    <style>
      .a {
        fill-rule: evenodd;
        fill: red;
      }
    </style>
  </defs>
  <title>splatter-optimised</title>
  <g>
    <path class="a" d="M0,0Z" transform="translate(-916 -528)"/>
    <path class="a" d="M0,0Z" transform="translate(-916 -528)"/>
    <path class="a" d="M0,0Z" transform="translate(-916 -528)"/>
    <path class="a" d="M0,0Z" transform="translate(-916 -528)"/>
    <path class="a" d="M0,0Z" transform="translate(-916 -528)"/>
    <path class="a" d="M0,0Z" transform="translate(-916 -528)"/>
    <path class="a" d="M0,0Z" transform="translate(-916 -528)"/>
    <path class="a" d="M0,0Z" transform="translate(-916 -528)"/>
    <path class="a" d="M0,0Z" transform="translate(-916 -528)"/>
    <path class="a" d="M0,0Z" transform="translate(-916 -528)"/>
    <path class="a" d="M0,0Z" transform="translate(-916 -528)"/>
    <path class="a" d="M0,0Z" transform="translate(-916 -528)"/>
    <path class="a" d="M0,0Z" transform="translate(-916 -528)"/>
    <path class="a" d="M0,0Z" transform="translate(-916 -528)"/>
    <path class="a" d="M0,0Z" transform="translate(-916 -528)"/>
    <path class="a" d="M0,0Z" transform="translate(-916 -528)"/>
    <path class="a" d="M0,0Z" transform="translate(-916 -528)"/>
    <path class="a" d="M0,0Z" transform="translate(-916 -528)"/>
    <path class="a" d="M0,0Z" transform="translate(-916 -528)"/>
    <path class="a" d="M0,0Z" transform="translate(-916 -528)"/>
    <path class="a" d="M0,0Z" transform="translate(-916 -528)"/>
    <path class="a" d="M0,0Z" transform="translate(-916 -528)"/>
    <path class="a" d="M0,0Z" transform="translate(-916 -528)"/>
    <path class="a" d="M0,0Z" transform="translate(-916 -528)"/>
    <path class="a" d="M0,0Z" transform="translate(-916 -528)"/>
    <path class="a" d="M0,0Z" transform="translate(-916 -528)"/>
    <path class="a" d="M0,0Z" transform="translate(-916 -528)"/>
    <path class="a" d="M0,0Z" transform="translate(-916 -528)"/>
    <path class="a" d="M0,0Z" transform="translate(-916 -528)"/>
    <path class="a" d="M0,0Z" transform="translate(-916 -528)"/>
    <path class="a" d="M0,0Z" transform="translate(-916 -528)"/>
    <path class="a" d="M0,0Z" transform="translate(-916 -528)"/>
    <path class="a" d="M0,0Z" transform="translate(-916 -528)"/>
    <path class="a" d="M0,0Z" transform="translate(-916 -528)"/>
    <path class="a" d="M0,0Z" transform="translate(-916 -528)"/>
    <path class="a" d="M0,0Z" transform="translate(-916 -528)"/>
    <path class="a" d="M0,0Z" transform="translate(-916 -528)"/>
    <path class="a" d="M0,0Z" transform="translate(-916 -528)"/>
    <path class="a" d="M0,0Z" transform="translate(-916 -528)"/>
    <path class="a" d="M0,0Z" transform="translate(-916 -528)"/>
    <path class="a" d="M0,0Z" transform="translate(-916 -528)"/>
    <path class="a" d="M0,0Z" transform="translate(-916 -528)"/>
    <path class="a" d="M0,0Z" transform="translate(-916 -528)"/>
    <path class="a" d="M0,0Z" transform="translate(-916 -528)"/>
    <path class="a" d="M0,0Z" transform="translate(-916 -528)"/>
    <path class="a" d="M0,0Z" transform="translate(-916 -528)"/>
    <path class="a" d="M0,0Z" transform="translate(-916 -528)"/>
    <path class="a" d="M0,0Z" transform="translate(-916 -528)"/>
    <path class="a" d="M0,0Z" transform="translate(-916 -528)"/>
    <path class="a" d="M0,0Z" transform="translate(-916 -528)"/>
    <path class="a" d="M0,0Z" transform="translate(-916 -528)"/>
    <path class="a" d="M0,0Z" transform="translate(-916 -528)"/>
    <path class="a" d="M0,0Z" transform="translate(-916 -528)"/>
    <path class="a" d="M0,0Z" transform="translate(-916 -528)"/>
    <path class="a" d="M0,0Z" transform="translate(-916 -528)"/>
    <path class="a" d="M0,0Z" transform="translate(-916 -528)"/>
    <path class="a" d="M0,0Z" transform="translate(-916 -528)"/>
    <path class="a" d="M0,0Z" transform="translate(-916 -528)"/>
    <path class="a" d="M0,0Z" transform="translate(-916 -528)"/>
    <path class="a" d="M0,0Z" transform="translate(-916 -528)"/>
    <path class="a" d="M0,0Z" transform="translate(-916 -528)"/>
    <path class="a" d="M0,0Z" transform="translate(-916 -528)"/>
    <path class="a" d="M0,0Z" transform="translate(-916 -528)"/>
    <path class="a" d="M0,0Z" transform="translate(-916 -528)"/>
    <path class="a" d="M0,0Z" transform="translate(-916 -528)"/>
    <path class="a" d="M0,0Z" transform="translate(-916 -528)"/>
    <path class="a" d="M0,0Z" transform="translate(-916 -528)"/>
    <path class="a" d="M0,0Z" transform="translate(-916 -528)"/>
    <circle cx="7" cy="20"/>
    <path class="a" d="M0,0Z" transform="translate(-916 -528)"/>
    <path class="a" d="M0,0Z" transform="translate(-916 -528)"/>
    <path class="a" d="M0,0Z" transform="translate(-916 -528)"/>
    <path class="a" d="M0,0Z" transform="translate(-916 -528)"/>
    <path class="a" d="M0,0Z" transform="translate(-916 -528)"/>
    <path class="a" d="M0,0Z" transform="translate(-916 -528)"/>
    <path class="a" d="M0,0Z" transform="translate(-916 -528)"/>
    <path class="a" d="M0,0Z" transform="translate(-916 -528)"/>
    <path class="a" d="M0,0Z" transform="translate(-916 -528)"/>
    <path class="a" d="M0,0Z" transform="translate(-916 -528)"/>
    <path class="a" d="M0,0Z" transform="translate(-916 -528)"/>
    <path class="a" d="M0,0Z" transform="translate(-916 -528)"/>
    <path class="a" d="M0,0Z" transform="translate(-916 -528)"/>
    <path class="a" d="M0,0Z" transform="translate(-916 -528)"/>
    <path class="a" d="M0,0Z" transform="translate(-916 -528)"/>
    <path class="a" d="M0,0Z" transform="translate(-916 -528)"/>
    <path class="a" d="M0,0Z" transform="translate(-916 -528)"/>
    <path class="a" d="M0,0Z" transform="translate(-916 -528)"/>
    <path class="a" d="M0,0ZM0,0ZM0,0ZM0,0ZM0,0ZM0,0ZM0,0ZM0,0ZM0,0ZM0,0ZM0,0ZM0,0ZM0,0ZM0,0ZM0,0ZM0,0ZM0,0ZM0,0ZM0,0ZM0,0ZM0,0ZM0,0ZM0,0ZM0,0ZM0,0ZM0,0ZM0,0ZM0,0ZM0,0ZM0,0ZM0,0ZM0,0ZM0,0ZM0,0ZM0,0ZM0,0ZM0,0ZM0,0ZM0,0ZM0,0ZM0,0ZM0,0ZM0,0ZM0,0ZM0,0ZM0,0ZM0,0ZM0,0ZM0,0ZM0,0ZM0,0ZM0,0ZM0,0ZM0,0ZM0,0ZM0,0ZM0,0ZM0,0ZM0,0ZM0,0ZM0,0ZM0,0ZM0,0ZM0,0ZM0,0ZM0,0ZM0,0ZM0,0Z" transform="translate(-916 -528)"/>
    <path class="a" d="M0,0Z" transform="translate(-916 -528)"/>
    <path class="a" d="M0,0Z" transform="translate(-916 -528)"/>
    <path class="a" d="M0,0Z" transform="translate(-916 -528)"/>
    <path class="a" d="M0,0Z" transform="translate(-916 -528)"/>
  </g>
</svg>
