<svg xmlns="http://www.w3.org/2000/svg" viewBox="0 0 64 508.4">
  <defs>
    <style>
      .a {
        fill-rule: evenodd;
        <!-- fill: #f2bc50; -->
        fill: black;
      }
    </style>
  </defs>
  <title>Asset 3</title>
  <g>
    <g>
      <path class="a" d="M14.6,498.5h.1C14.7,498.5,14.7,498.5,14.6,498.5Z"/>
      <path class="a" d="M60.5,500.5c.1,0,.1.1.1.2h-.1Z"/>
      <path class="a" d="M60.5,501s-.2-.1-.2,0S60.6,500.8,60.5,501Z"/>
      <path class="a" d="M58.7,501Z"/>
      <path class="a" d="M59.4,500.9c0,.2,0,.2-.1.2S59.3,500.9,59.4,500.9Z"/>
      <path class="a" d="M59.9,501c.2-.1.2.2,0,.1Z"/>
      <path class="a" d="M56.3,501.1c.2,0,0,.2-.1.2S56.3,501.2,56.3,501.1Z"/>
      <path class="a" d="M58.6,501.1h0Z"/>
      <path class="a" d="M58.8,501.2h0Z"/>
      <path class="a" d="M55.8,501.2h0Z"/>
      <path class="a" d="M55.7,501.3c-.1,0,0-.1,0,0Z"/>
      <path class="a" d="M55.9,501.3Z"/>
      <path class="a" d="M54.3,501.7h-.1C54.3,501.8,54.3,501.7,54.3,501.7Z"/>
      <path class="a" d="M55.9,501.7h0C56,501.7,55.9,501.8,55.9,501.7Z"/>
      <path class="a" d="M51.3,502.2Z"/>
      <path class="a" d="M50.4,502.3h0Z"/>
      <path class="a" d="M49.9,502.4h.3C50.2,502.5,50.1,502.3,49.9,502.4Z"/>
      <path class="a" d="M11.2,506.5h.1S11.2,506.6,11.2,506.5Z"/>
      <path class="a" d="M.8,507.7H.6C.5,507.6.7,507.7.8,507.7Z"/>
      <path class="a" d="M57.8,501c.2.2-.2.3-.3.2S57.8,501.2,57.8,501Z"/>
      <path class="a" d="M54.8,501.7Z"/>
      <path class="a" d="M56.4,501.6h0S56.5,501.7,56.4,501.6Z"/>
    </g>
    <path class="a" d="M0,0V507.5H.3c.1,0-.1-.1.1-.1H.8c-.1.1-.2,0-.1.1s.2-.1.4-.1.2-.1.3,0H1.3c.4.2.8-.1,1.1,0s.4,0,.6,0a6.1,6.1,0,0,0,1.3-.3h1l1-.2h.6c.1,0-.1-.1,0-.2l-.5.2-.4-.2h.4c.4,0,.7-.2,1,0s-.4,0-.3.2.4.1.5,0-.1-.3,0-.3h.6c.1,0,0,.2.2.1s.1,0,.2-.1h1.5c.1-.1.3,0,.4.1s.6-.1.9-.2.2.3.2.5a.1.1,0,0,0-.1.1c.1,0,0-.1.2,0h.1a.5.5,0,0,0,.2.4l.5.7c.3.2.7.2.9.4s0,.3,0,.4.3-.2.6-.2-.1-.1-.1-.2l.5-.5c.2.1.3,0,.4-.1v.3l1.4-.4c.1,0,0-.1.1,0a6.1,6.1,0,0,1,1.3-.3l1-.2h.3c.1.1.4,0,.4.2h1.2c.6-.2,1.3-.1,1.8-.4h.4l.7-.2h1.2c.2.1.6-.1.8-.1H26l1.3-.3h2.9c.5,0,.8-.2,1.2-.1s.4-.1.7-.2H33c.2-.2.7-.1,1-.2l2.2-.3h.9c0-.2.1-.2.2-.3a2.5,2.5,0,0,1,1.2-.1H40c.2-.1.3,0,.4-.2s0,.2.1.1.9-.2,1.2-.4a3.2,3.2,0,0,0,1.4-.3h1.5c.3.1.7-.1,1-.1l.2-.2h.5c.3.1.5-.1.7-.2h.5c.1,0,.2-.2.3-.1s-.1.1-.1.2.5-.1.6,0l.2-.3h.4c.1.1.1.3.2.3s.2-.1.2-.2.2-.1.3-.2.2,0,.4,0h.5a.1.1,0,0,0,.1.1c.1-.2.2-.2.4-.3s.2.2.3.2.5,0,.7,0,.1,0,0-.2.2,0,.2-.1-.7.2-.9,0l.9-.2.2.2h.2a.5.5,0,0,0-.2.4h.2a.9.9,0,0,0,.3-.7l.4-.2s0-.1.2-.1.2,0,.2.2-.1.1-.3.1-.3.4.1.5,0-.2,0-.3a.9.9,0,0,1,.7-.3c0,.1-.1.2.1.1s-.1.2.1.2-.1-.2.1-.2H55c.1-.2-.1-.1-.1-.3h1.9c0,.1-.2.1-.1.3a.2.2,0,0,0-.2.2c.2,0,0,0,.1.1h.1c.2.1.3,0,.4-.1a.7.7,0,0,0-.1-.5.9.9,0,0,1,.7,0c0-.2.1-.2.2-.3s.1.2.2.1h.5v.2h1l.9-.4h.4c.1.3.6-.1.6.4H62c.1-.2.2-.2.4-.3h.2l.3-.3H64V0ZM19.2,497c.1-.2.4-.2.5-.3S19.3,497,19.2,497Zm-.3.2h-.3C18.6,497.1,18.9,497,18.9,497.2Zm-6.3,1.7c-.1-.1.2-.1.2-.1ZM5,505.5H5Zm-3,1.7c0-.2.3-.1.4-.2A.5.5,0,0,1,2,507.2Zm2-1.4H4Zm.4,1.1c0,.1,0,.1-.1.1v-.2h.3C4.5,506.8,4.5,506.9,4.4,506.9Zm.4-1.2c0-.2.2-.1.3-.1Zm.2-.6H5Zm.5,1Zm.4.5Zm-.7-1c.1-.2.4-.1.7-.1h.3C6,505.6,5.5,505.5,5.2,505.6Zm.4-.5s.1-.1.1,0Zm1-4.6c-.1.1-.1,0-.2,0s-.2.2-.4.1-.7.2-1,.1h.9l.3-.2h.3C6.6,500.3,6.6,500.4,6.6,500.5Zm.7,4.8H6.7c.1-.1.4,0,.4-.3h.2C7.4,505.1,7.2,505.2,7.3,505.3Zm1.1.8Zm.3-5.9H8.2c0-.2-.1-.3-.1-.5s.3-.2.6-.2-.4.1-.4.3.4-.1.6,0S8.7,500,8.7,500.2Zm.7,4.7h0Zm4.1-5.9a.3.3,0,0,0-.3.3l-.6.2-.9.2-.4.2c-.3-.1-.7.1-1,0a4.9,4.9,0,0,1-1.4.3c.3-.5.9-.3,1.6-.4s-.2-.2,0-.3.6-.2.9,0l.3-.4c.3.1.2-.2.5-.1h.3c.1-.1.2,0,.3,0a.5.5,0,0,1,.4-.2v-.2h.4c.1.1-.1.1-.1.2s.2,0,.2.1S13.6,498.9,13.5,499Zm4.2-.7c-.3,0-.4-.1-.6,0a.1.1,0,0,1-.1-.1h-.4c-.1,0-.4.2-.6.1l-1,.3h-.6l-.6.2c0-.3.4-.1.3-.4H14c.1-.1.3-.1.3-.3a.6.6,0,0,0,.6-.1c.4.1.7-.2,1.1-.2s-.5.2-.7.3.1.1.1.2l.9-.2.5-.2c.1-.2.4-.3.5-.4s.2.3.5.3A.4.4,0,0,0,17.7,498.3Zm.1-.7h.3C18.1,497.6,17.9,497.6,17.8,497.6Zm1.9.3h-.4c-.2-.2-.7-.1-.8-.4h.7c.1,0,.4-.2.6,0S19.8,497.8,19.7,497.9Zm1.1-.7h0Zm.2,0c.2-.1-.1.2,0,0Z"/>
  </g>
</svg>
