<svg xmlns="http://www.w3.org/2000/svg" viewBox="0 0 88.84 26.48"><defs><style>.cls-1{fill-rule:evenodd;}</style></defs><title>splatter</title><g id="Layer_2" data-name="Layer 2"><g id="Layer_1-2" data-name="Layer 1"><path class="cls-1" d="M49.38,1.3c.18,0,.27,0,.27.18S49.31,1.52,49.38,1.3Z"/><path class="cls-1" d="M73.84,1.7c0-.06,0,0,.09,0A0,0,0,0,1,73.84,1.7Z"/><path class="cls-1" d="M72.54,1.7c-.05.14-.23-.05,0,0Z"/><path class="cls-1" d="M73.71,1.75s0-.06,0-.05S73.72,1.76,73.71,1.75Z"/><path class="cls-1" d="M72.59,1.79s0,0,.09,0S72.62,1.78,72.59,1.79Z"/><path class="cls-1" d="M74.7,1.75c0,.08-.08.1-.18.09S74.62,1.76,74.7,1.75Z"/><path class="cls-1" d="M73.62,1.84c.15-.11-.11.15,0,0Z"/><path class="cls-1" d="M74.38,1.84c0-.05.06,0,.09-.05S74.42,1.83,74.38,1.84Z"/><path class="cls-1" d="M73.49,1.88s0-.06,0,0S73.5,1.89,73.49,1.88Z"/><path class="cls-1" d="M74.56,1.93s.08.05.09,0C74.84,2,74.49,2.11,74.56,1.93Z"/><path class="cls-1" d="M75.37,2s.06,0,.09,0S75.41,2,75.37,2Z"/><path class="cls-1" d="M75.86,2c0-.05.09,0,.09,0S75.87,2,75.86,2Z"/><path class="cls-1" d="M75.69,2s0-.06,0-.05S75.7,2,75.69,2Z"/><path class="cls-1" d="M75.15,2.11s0-.06,0,0S75.16,2.12,75.15,2.11Z"/><path class="cls-1" d="M79.19,3.23s0-.06,0,0S79.2,3.24,79.19,3.23Z"/><path class="cls-1" d="M45.07,3.27s0-.06,0,0S45.08,3.28,45.07,3.27Z"/><path class="cls-1" d="M43.19,3.36s.05,0,.08,0S43.22,3.35,43.19,3.36Z"/><path class="cls-1" d="M41.3,4.21s0-.06,0,0S41.31,4.22,41.3,4.21Z"/><path class="cls-1" d="M8.17,5.24c-.05.29-.3.13-.49.14a2,2,0,0,1-.63.09c-.14,0-.33,0-.41,0a.69.69,0,0,1-.31,0c-.21,0-.4.16-.63.18s-.6-.09-.85-.09a7.22,7.22,0,0,1-1.66.13,2.37,2.37,0,0,1-.81.09,5,5,0,0,0-.9.45c-.26.08-.41.28-.72.31,0,.12-.25,0-.18.14A1,1,0,0,1,.45,5.51a8.59,8.59,0,0,1,1.08-.22c.17,0,.18.12.36.09.72-.1,1.44,0,2.19,0a3.86,3.86,0,0,1,1-.09c.29-.15.8-.09,1.12-.22a8.15,8.15,0,0,0,1.48.09C7.92,5.11,8.14,5.08,8.17,5.24Z"/><path class="cls-1" d="M30.17,5.06s0,0,.09,0S30.2,5.05,30.17,5.06Z"/><path class="cls-1" d="M32.64,5c.07,0,.07,0,.13,0S32.57,5.13,32.64,5Z"/><path class="cls-1" d="M32.64,5.15s-.07.13,0,.14-.29,0-.41,0a7.71,7.71,0,0,0-.9-.13.48.48,0,0,1,.59,0C32.21,5.13,32.3,5.16,32.64,5.15Z"/><path class="cls-1" d="M35.51,5.29c-.1.23.06.27.31.27a.88.88,0,0,1-.63.09c-.1-.17.22-.22,0-.23C35.25,5.33,35.39,5.32,35.51,5.29Z"/><path class="cls-1" d="M31,5.47s0-.06.05,0S31,5.48,31,5.47Z"/><path class="cls-1" d="M36.23,5.42c.07,0,.24,0,.22.14-.1,0-.19-.1-.22,0S36.21,5.45,36.23,5.42Z"/><path class="cls-1" d="M32.37,5.47h.09v.09h-.09Z"/><path class="cls-1" d="M37.3,5.6c0-.06,0,0,.09,0A0,0,0,0,1,37.3,5.6Z"/><path class="cls-1" d="M36.9,5.65c0-.05.05,0,.09-.05S36.93,5.64,36.9,5.65Z"/><path class="cls-1" d="M37.53,5.87c-.29.19-1,.28-1.08-.09-.12,0-.1.14-.22.13,0-.19-.38,0-.54-.08,0-.16.29-.07.45-.09h.49a.2.2,0,0,1,.14,0c.17,0,0,.07.08.14C37.13,5.79,37.26,5.9,37.53,5.87Z"/><path class="cls-1" d="M38.29,5.91c-.22,0-.38.13-.54,0,0-.16.39,0,.41-.17S38.27,5.83,38.29,5.91Z"/><path class="cls-1" d="M35.87,6.23c-.18.19-.77,0-.9,0s-.09,0-.09-.09C35.2,6,35.54,6.23,35.87,6.23Z"/><path class="cls-1" d="M88.84,6.5c-.06.2-.44.3-.54.09A.35.35,0,0,1,88.84,6.5Z"/><path class="cls-1" d="M33.17,6.68c-.08.09-.35,0-.44.09C32.75,6.56,33.07,6.57,33.17,6.68Z"/><path class="cls-1" d="M14.36,7s.06,0,.09,0S14.4,7,14.36,7Z"/><path class="cls-1" d="M7.86,7.35c.06.25-.21.33-.36.22,0-.05,0-.08,0-.09C7.46,7.32,7.72,7.24,7.86,7.35Z"/><path class="cls-1" d="M6.73,7.71a.23.23,0,0,1-.45.09A.23.23,0,0,1,6.73,7.71Z"/><path class="cls-1" d="M32.9,10.84s0-.05.05,0S32.92,10.86,32.9,10.84Z"/><path class="cls-1" d="M83.41,12.86s0-.06,0,0S83.42,12.87,83.41,12.86Z"/><path class="cls-1" d="M78.78,12.9c.1,0,.09.07.09.14s0,0-.09,0Z"/><path class="cls-1" d="M78.78,13.35s-.17-.11-.18,0C78.44,13.23,78.82,13.15,78.78,13.35Z"/><path class="cls-1" d="M76.94,13.35s0,0,0,0S76.94,13.38,76.94,13.35Z"/><path class="cls-1" d="M77.71,13.31a.18.18,0,0,1-.18.18C77.58,13.42,77.56,13.29,77.71,13.31Z"/><path class="cls-1" d="M78.2,13.35c.13-.06.13.2,0,.14Z"/><path class="cls-1" d="M74.56,13.44c.16,0,0,.19-.09.18S74.56,13.53,74.56,13.44Z"/><path class="cls-1" d="M76.9,13.49a1.18,1.18,0,0,1-.41.09C76.51,13.43,76.75,13.51,76.9,13.49Z"/><path class="cls-1" d="M77,13.53s.06,0,.09,0S77.07,13.52,77,13.53Z"/><path class="cls-1" d="M74.07,13.58s0-.06,0-.05S74.08,13.59,74.07,13.58Z"/><path class="cls-1" d="M73.93,13.67s0-.06,0-.05S74,13.68,73.93,13.67Z"/><path class="cls-1" d="M74.11,13.67c0-.05,0,0,0,0S74.11,13.69,74.11,13.67Z"/><path class="cls-1" d="M10.41,13.8c0-.09.21-.06.14,0h-.09S10.44,13.8,10.41,13.8Z"/><path class="cls-1" d="M10.5,13.94c0-.06.09,0,.09,0S10.51,14,10.5,13.94Z"/><path class="cls-1" d="M10.86,14a.1.1,0,0,1,.09.13C10.8,14.2,10.8,14.09,10.86,14Z"/><path class="cls-1" d="M72.54,14.07h.09v.09s0,0,0,0H72.5v-.09S72.54,14.1,72.54,14.07Z"/><path class="cls-1" d="M74.16,14.11s0,0,0,0S74.17,14.13,74.16,14.11Z"/><path class="cls-1" d="M69.53,14.61s0-.06,0,0S69.55,14.62,69.53,14.61Z"/><path class="cls-1" d="M68.64,14.65h.22C68.93,14.79,68.57,14.79,68.64,14.65Z"/><path class="cls-1" d="M68.19,14.74c0-.1.22,0,.31,0C68.47,14.86,68.36,14.69,68.19,14.74Z"/><path class="cls-1" d="M7,18S7,18,7,18,7,18,7,18Z"/><path class="cls-1" d="M6.78,18c.15.11-.06.24-.09.32-.19-.17-.43-.1-.67-.14C6.23,18.09,6.61,18.16,6.78,18Z"/><path class="cls-1" d="M2.38,18.37c.28-.05.54-.12.81-.18,0,.45-.82.17-.81.67.05.11.3,0,.31,0,.21.07-.09.17-.09.31.26.17.42-.11.54-.22.14.07.19.23.41.22,0,.14-.21.13-.32.18a1.54,1.54,0,0,0,.36.36,8.9,8.9,0,0,0,1.35-.31c.12,0,.17-.13.27-.18a.2.2,0,0,1,.22.09c.11,0,.13-.08.27-.05s.09.13.23.09a1.11,1.11,0,0,0-.32.18,1.36,1.36,0,0,0-.81.18c.19.19.52,0,.72,0,0,.15,0,.19.14.22s-.1.11-.09.22c-.25-.16-.65,0-.9-.09-.25.13-.41.34-.67.45a1,1,0,0,0-.36,0c-.08-.06-.12-.15-.27-.14.09-.08.22-.14.22-.31.06.06.22.07.23,0-.61-.11-1.31.29-2,.35-.1,0-.07-.08-.14-.09s-.1.18-.22.18-.07-.14-.14-.18S1,20.13,1,20c.26,0,.41.08.58.09s.08-.28.23-.31c-.18-.3-.54-.35-1-.27a3.58,3.58,0,0,0-.45-.31c-.17,0-.29.07-.36,0a1.33,1.33,0,0,0,.36-.45c.28-.13.68-.16.85-.4.37,0,.68-.23,1-.14C2.26,18.28,2.33,18.31,2.38,18.37Z"/><path class="cls-1" d="M4.67,18.42a.38.38,0,0,1,.27,0c-.08.08-.05.28,0,.31s-.27,0-.31.14,0-.1,0-.18-.14,0-.23-.09S4.74,18.63,4.67,18.42Z"/><path class="cls-1" d="M5.88,18.42c0,.06-.1.08-.18.09S5.78,18.4,5.88,18.42Z"/><path class="cls-1" d="M4.13,18.46c.09,0,.12,0,.18.05s-.14.1-.18.18.34,0,.31.22c-.16-.05-.12.11-.27.09s-.25-.07-.26-.23C4.09,18.78,4,18.54,4.13,18.46Z"/><path class="cls-1" d="M3.91,18.69c-.17,0-.22-.07-.36,0C3.54,18.54,3.94,18.47,3.91,18.69Z"/><path class="cls-1" d="M29.49,18.91s0-.06.05-.05S29.51,18.92,29.49,18.91Z"/><path class="cls-1" d="M6.69,19.22c-.11,0-.22,0-.23.09s0-.13-.13-.13S6.74,19,6.69,19.22Z"/><path class="cls-1" d="M10.32,19.18c0,.13,0,.25-.18.22,0,0,0-.08,0-.09S10.22,19.19,10.32,19.18Z"/><path class="cls-1" d="M9.79,19.36c0,.06-.13.09-.14.18s-.14-.07-.13-.18A.22.22,0,0,1,9.79,19.36Z"/><circle cx="7.41" cy="20.07" r="0.06"/><path class="cls-1" d="M19,20c0,.08-.07.1-.18.09S19,20,19,20Z"/><path class="cls-1" d="M6.15,20.21q.16,0,.18.18H6.15Z"/><path class="cls-1" d="M5.48,20.34s0-.05,0,0S5.49,20.36,5.48,20.34Z"/><path class="cls-1" d="M4.89,20.39c.05-.14.12.05.18,0C5,20.57,5,20.38,4.89,20.39Z"/><path class="cls-1" d="M4.62,20.39c.1,0,.15,0,.14.13S4.62,20.49,4.62,20.39Z"/><path class="cls-1" d="M12.7,20.52s0-.05.05,0S12.72,20.53,12.7,20.52Z"/><path class="cls-1" d="M3.32,20.75a.43.43,0,0,1-.27.13.22.22,0,0,1,0-.13A.26.26,0,0,1,3.32,20.75Z"/><path class="cls-1" d="M6.78,21c-.12.31-.38.14-.63.22A2.47,2.47,0,0,1,6.78,21Z"/><path class="cls-1" d="M6.06,21.24c0,.12-.31.13-.36.09C5.82,21.3,6,21.15,6.06,21.24Z"/><path class="cls-1" d="M8.75,21.51s0-.06.05-.05S8.77,21.52,8.75,21.51Z"/><path class="cls-1" d="M10.77,21.55s.06,0,.09,0S10.81,21.54,10.77,21.55Z"/><path class="cls-1" d="M11,21.55s0-.05,0,0S11,21.57,11,21.55Z"/><path class="cls-1" d="M11.58,21.91c-.13.17-.15-.13,0,0Z"/><path class="cls-1" d="M10.28,22.18c0-.1.25,0,.36,0C10.61,22.38,10.37,22.31,10.28,22.18Z"/><path class="cls-1" d="M9.61,22.45c0,.18-.23.13-.41.13C9.26,22.46,9.45,22.47,9.61,22.45Z"/><path class="cls-1" d="M23.84,26.12c.13,0,.08.1.09.18A.18.18,0,0,1,23.84,26.12Z"/><path class="cls-1" d="M23.61,26.35c.1,0,.09.06.09.13s0,0-.09,0Z"/><path class="cls-1" d="M33.85,4.35Z"/><path class="cls-1" d="M76.81,2.46c0,.14.06-.1.18,0s.15,0,.18.09a1.68,1.68,0,0,0,.27-.09c0,.15.18.08.18.22.16,0,.19-.07.35,0,0,.29.27.27.45.36.06-.15-.14,0-.09-.18.26,0,.27,0,.23.27.14,0,.13-.08.27,0s.1.2.18.27a1.23,1.23,0,0,1,.49,0c.07.16-.15,0-.13.13s.22.08.27,0,.1.07.09.17a4.83,4.83,0,0,1,.58.05v.13c.19,0,.26.19.4.27s0,0-.09,0l.68.31c.12.08.13.26.31.27v.13c.25.13.36.4.58.54,0,.11.08.13,0,.27.14.07.41,0,.49.14.45,0,.8.1,1.21-.09a5.65,5.65,0,0,1,.59,0c.13-.06.3-.08.45-.13a5.94,5.94,0,0,1,1.88.13c-.06.2,0,.28-.09.4,0,.42-.14.64-.13,1-.23.24-.22.72-.5.9a2.19,2.19,0,0,1-.44,1c0,.14-.08.19,0,.35s-.1.08-.09.18c-.17.06-.29.16-.45.23,0,.36,0,.51-.13.71a.83.83,0,0,0-.81.18c.07.22.27.3.31.54-.09,0-.12,0-.18.05s.13.08.09.22a1.17,1.17,0,0,1-.67.22c0,.12,0,.17.13.14,0,.16-.29,0-.35.13s.21.06.18.23c.17.05.39,0,.4.27-.12.1-.32,0-.4-.05a2.74,2.74,0,0,1-1.53.05.6.6,0,0,0-.31.09c-.15-.09-.16-.06-.41-.05h-.22a2.21,2.21,0,0,0-.36.23c-.1,0-.12,0-.18-.05-.22.09-.33.06-.45.27a.63.63,0,0,0-.45,0c0-.46-.54-.07-.63-.4-.12,0-.13.13-.27.13,0-.08,0-.08-.09-.09-.28.15-.59.27-.89.4s-.12-.12-.23-.13c-.27,0-.55.07-.81.13V12.9c-.18.06-.35-.05-.49.09s-.09-.08-.18-.09a.33.33,0,0,0-.23.23,2.15,2.15,0,0,0-.67,0c0,.17,0,.38.09.54a.59.59,0,0,1-.45.13c.07-.06.07-.17-.09-.13s.13-.15,0-.14c0-.12.12-.11.18-.18s.09-.14.09-.27-.19,0-.27-.09a.93.93,0,0,0-.32.09c-.1,0-.32-.05-.36.05S74,13,74,13s-.35.13-.58.09a1.26,1.26,0,0,0-.23.13c0,.2.15.15.14.32a2.9,2.9,0,0,0-.54.09c-.18,0-.06.15-.14.22s0-.11,0-.22c-.25.06-.12,0-.18-.14a1.46,1.46,0,0,0-.68.32c0,.13.11.21,0,.31-.34-.07,0-.25,0-.49a.4.4,0,0,0,.31-.09c0-.16-.28-.05-.27-.23-.15,0-.14.1-.22.14s-.21.09-.31.13a1.33,1.33,0,0,1-.32.76.29.29,0,0,0-.22,0,.82.82,0,0,1,.18-.36.13.13,0,0,0-.14.09.73.73,0,0,0-.27-.22c-.24.1-.59.09-.85.18.22.19.57,0,.9,0,0,.09-.12.09-.18.13s-.07.11-.09.18-.44-.17-.63,0-.16-.14-.31-.14-.33.07-.36.23-.11-.07-.18-.09a1.24,1.24,0,0,1-.5.09c-.17,0-.17.2-.36.09-.08.06-.13.16-.27.18s-.09.14-.22.13-.15-.12-.18-.22h-.45c-.12,0-.12.17-.18.27-.16-.11-.37,0-.63,0,0-.07.15,0,.09-.18s-.13.05-.27,0h-.49c-.26.09-.37.32-.76.27-.12-.08-.28-.11-.41-.18s-.14.16-.22.23c-.34,0-.71.18-1,.09a1.15,1.15,0,0,1-.63.09,2.6,2.6,0,0,1-.94.13,3.5,3.5,0,0,1-1.35.31c-.29.23-.91.14-1.16.41-.13,0-.09-.09-.18-.09s-.17.08-.32.13h-.63a1.69,1.69,0,0,0-.45.14c-.1,0-.09-.09-.22-.05s-.12.06-.22.05a2.66,2.66,0,0,0-1.22.09c-.08.08-.2.12-.18.31-.29,0-.44.12-.67,0a2.14,2.14,0,0,0-.27.09c-.8,0-1.43.18-2.2.23-.26.16-.75.08-1,.22h-.45a1,1,0,0,1-.45.05c-.24.1-.5,0-.63.13-.47,0-.76.16-1.25.13-.11.05-.27,0-.36.09-.35,0-.71.16-.94.09-.07,0-.12.07-.18.09a3.13,3.13,0,0,0-1.08.18h-.36a8.06,8.06,0,0,0-1.3.27c-.23,0-.33.07-.54,0a2.54,2.54,0,0,1-.85.18c-.13,0-.1.09-.18.09-.42-.06-.6.12-1,.09a1.53,1.53,0,0,1-.68.13.73.73,0,0,0-.26.09c-.07,0-.13,0-.14-.05a9.68,9.68,0,0,1-1.84.36,11.4,11.4,0,0,0-1.17,0c0-.15-.35,0-.45-.13s-.13.07-.22.09a2.24,2.24,0,0,0-1,.22,11.76,11.76,0,0,0-1.26.23c-.12,0-.09.09-.18.09a8.9,8.9,0,0,0-1.35.31c0-.14,0-.09,0-.22s-.2.13-.4.09a1.53,1.53,0,0,0-.49.49c0,.13.06.11,0,.22-.25,0-.38.29-.58.18,0-.14.14-.3,0-.4-.26-.17-.61-.25-.9-.41a7.41,7.41,0,0,1-.49-.71.74.74,0,0,1-.27-.41c-.05,0-.08,0-.09,0s-.11.06-.22,0,.12-.09.18-.13c0-.21-.2-.25-.23-.45a2,2,0,0,0-.9.18c-.11-.07-.33-.23-.44,0-.11,0-.09-.16-.23-.14s-.39,0-.45.14c-.1-.1-.25,0-.36,0h-.22c-.15,0-.09.12-.18.14s-.26-.19-.27.09c-.14,0-.06-.15-.18-.14s-.28.14-.54.09c-.11,0,.06.17,0,.31s-.47.22-.58.05.22-.19.36-.27c-.32-.15-.66.06-1,0a1.72,1.72,0,0,1-.4.14c.12.07.32.07.4.18s.35-.25.49-.18c-.11.06.08.13,0,.18a.37.37,0,0,1-.27,0,.75.75,0,0,1-.31.05,3.52,3.52,0,0,1-1,.18,3.8,3.8,0,0,1-.54.09c-.22,0-.33,0-.45-.05a5.48,5.48,0,0,1-1.25.27c-.25,0-.42-.09-.59,0-.29-.13-.69.12-1.07,0,0,0,.09,0,.09-.09s-.28,0-.36,0-.14.22-.36.18,0,0,0-.14a1,1,0,0,1-.4,0c-.21,0,.07.14-.05.18s-.33,0-.62,0c-.1,0-.07-.08-.14-.09h-.36c0,.11,0,.19.09.22-.16.09-.45,0-.58.14,0-.21-.19-.07-.36-.09.11-.13.39-.09.49-.22-.5-.06-1.45,0-2.06,0,0-.07,0-.08,0-.13s-.06.14-.18.13a1,1,0,0,1-.67-.13,8.07,8.07,0,0,0-1.39,0c.41-.19,1.08-.12,1.52-.27,0-.18-.18,0-.35-.05s-.16-.08-.32,0a1.25,1.25,0,0,1-.81.13,9.18,9.18,0,0,1-1.75.54c-.11,0-.24,0-.31-.09s-.18.24-.32.31h-.31c-.21,0-.44.31-.85.27a4.23,4.23,0,0,1-1.26.32.19.19,0,0,0-.18.09c-.24-.1-.53,0-.67,0,.06-.31.35-.4.72-.41.19-.05.32-.18.58-.18.29-.24.86-.21,1.26-.36,0-.09.14-.12.22-.17a1.4,1.4,0,0,1,.31.09c.29-.08.53,0,.63-.23.17,0,.2-.08.36,0s.5-.32.72-.23a1.34,1.34,0,0,1,.63-.13c.09,0,.1-.14.18-.18a.73.73,0,0,0,.49-.18c.12,0,.26.07.32-.05-.41-.17-1.05.16-1.4-.09,0-.1.24,0,.27-.08s.08-.2.18-.23.2,0,.36.05c0,.08-.15,0-.13.13a.32.32,0,0,0,.4-.18c0-.1-.14-.1-.18-.18a.62.62,0,0,0-.45.09,1.38,1.38,0,0,0-1,.23c-.15,0-.31,0-.36.09s-.07-.08-.13-.09-.24.06-.27.17-.17,0-.18-.08-.23.22-.36.31-.14-.1-.27-.05-.41.13-.54.27c-.11,0-.17-.07-.18.09-.21-.13-.55-.11-.63.14s.15.15.09.36c-.21,0-.21-.18-.27-.32s-.21.07-.36,0-.08-.27-.26-.27,0,.13-.09.18-.2-.08-.27-.13a.39.39,0,0,1-.36-.14c0-.28.32-.08.54-.22a.68.68,0,0,0,.4,0c.11,0,.11-.18.18-.27.18.1.13-.05.31,0,0-.25-.17-.28,0-.5,0-.06-.15-.06-.23-.09s.06-.11,0-.18c-.28,0-.42.18-.76.14.06-.13.29-.1.45-.14s.3-.11.4-.22.11.12.27,0,.05-.19.09-.26A.39.39,0,0,0,9,17.21a9.59,9.59,0,0,0,1-.72l.13-.27c.19,0,.25-.11.4-.13.16-.19.43-.27.45-.59,0-.09-.12-.05-.09-.18-.13.14-.31.23-.45.36-.23-.09-.3.07-.58.05,0-.26.26-.31.4-.32s.33-.12.41-.26c-.35-.09-.55,0-.94,0,0-.16.32-.07.35-.23.27,0,.51-.1.77-.09,0-.15-.17-.13-.32-.13.13-.1.39-.06.45-.23s-.14-.07-.22-.09c.07-.15.37-.07.49-.18s-.16,0-.22,0a.25.25,0,0,1,0-.22h-.45c.07-.08.23,0,.27-.14s-.26,0-.22-.18c.22,0,.36-.13.45-.13s-.12.06-.23,0c.07-.15.14-.13.14-.27.28,0,.54-.09.81-.14-.19-.22-.59,0-.9,0,.19-.33.73-.31,1.08-.49-.1-.14-.07-.13-.09-.36a5,5,0,0,0,.71-.14c0-.13,0-.15.05-.27-.24,0-.34.08-.59.05a5,5,0,0,1,1.35-.31.76.76,0,0,1,.05-.36c.16-.16.52-.14.49-.5,0,0,0,0,0-.09-.26-.06-.29.14-.45,0s-.08-.46-.14-.67.14-.25.09-.5c.53-.11.67-.62.94-1,.51-.21.83-.61,1.44-.72h.9c.15-.1.48,0,.58-.18a2.56,2.56,0,0,1-.45-.27c-.21.06-.36-.1-.49,0-.3,0-.61-.19-.94-.22A3.78,3.78,0,0,1,14.72,7c0-.25.43-.11.59-.22h.27c.15,0,.15-.15.31-.14a1.63,1.63,0,0,0-1-.13c-.07-.3.24-.22.41-.27,0-.15-.16-.11-.23-.18s-.33-.29-.45-.49a1,1,0,0,1-.36-.23c-.58-.1-1.28.1-1.79-.13-.13,0-.12.06-.23,0-1,0-2,.07-2.82.09-.08,0-.1,0-.18,0-.25,0-.51.14-.72,0,0-.16.21,0,.22-.18.8,0,1.25-.06,1.89,0a1,1,0,0,1,.58,0,2.3,2.3,0,0,1,1.17,0,2.78,2.78,0,0,1,1.17-.13c.09-.06.25,0,.45,0a3.85,3.85,0,0,0,1.61-.44,1.66,1.66,0,0,0,1-.27c.16,0,.17.16.31.18s.16-.12.27-.14.22.06.36,0A.84.84,0,0,0,17.87,4a.55.55,0,0,0,.36,0,2.73,2.73,0,0,0,1.34-.13c.15,0,.37,0,.45,0,.64-.06,1,.08,1.71.05.13,0,.13-.1.27-.09a.82.82,0,0,1,.44.13,22.4,22.4,0,0,1,2.83.18c1.09-.16,2.51,0,3.55-.18.54.1,1,0,1.57,0,.07,0,.08,0,.14,0,.55,0,1-.08,1.57,0,.17-.09.5,0,.67-.09,0,.13.37,0,.4.09.08-.08.27,0,.41-.05s.29,0,.27.14c-.18.08-.47,0-.59.18a2.23,2.23,0,0,0-.71.09s-.2.12-.09.13c-.11.11-.31.14-.41.27h-.54c-.14.06-.22.16-.36.22s-.25,0-.36-.09a2.09,2.09,0,0,1-.58,0c-.11.06-.31,0-.4.09s-.42-.06-.36.18.48,0,.76,0c.09-.2.45-.22.63-.09,0,.06-.08,0-.14,0s.13.23,0,.31a3.27,3.27,0,0,0,.85,0c0,.14.12.12.18.18-.23.12-.48,0-.76,0s-.95,0-1.3.17c0,.21.38.15.45,0a1.81,1.81,0,0,1,1,.09c.45,0,.66-.26,1.17-.22,0,.12-.09.09-.09.18a3,3,0,0,0,.89,0c-.07-.08-.24-.06-.31-.13s.25-.14.45-.14a3.13,3.13,0,0,0,.45-.22c.16,0,.29.18.45,0-.07-.19-.1,0-.27,0,.09-.1,0,0-.05-.13-.2.08-.41-.07-.67,0,.2-.14.69-.07,1.12-.09.11.1.47,0,.45.18-.23.07-.36,0-.49.09,0,.18.18,0,.36,0,0,.08-.17.23,0,.27-.08.1-.35,0-.5,0-.07-.16.15,0,.14-.13a.53.53,0,0,0-.41,0c0,.17-.23.16-.36.22,0,.14.15,0,.23,0,0,.25.3.13.4.23,0,.26-.43.11-.54.27a2.18,2.18,0,0,0-.85.18c-.17,0-.39,0-.45.09.16.11.51,0,.5.31.57.06.83,0,1.39,0a.73.73,0,0,0,.31-.13c.28,0,.75.22.85-.09.33.12.52-.13.81,0a1.26,1.26,0,0,0,.23-.13,1.47,1.47,0,0,0,.89-.09c-.33-.12-1,.09-1.43,0,0-.2.3-.11.49-.13s.08-.1.09-.18a1.68,1.68,0,0,0,.32-.09c.38.05.76-.1,1,0,0,.16-.18.06-.13.23.48.13.88-.2,1.3-.27-.17-.14,0-.1.09-.14a.68.68,0,0,0-.4-.09c0-.19.51,0,.58-.17.08,0,.09,0,.18,0s.35-.15.54-.22.31.14.36,0c.22.16.51,0,.76,0-.1-.14-.55.07-.58-.14s.17-.06.27-.09.15.08.31,0,0-.14,0-.27a.21.21,0,0,0,0-.31c-.2,0-.15.15-.31.13s-.12-.06-.23,0a2.88,2.88,0,0,1-1.17.36,2.6,2.6,0,0,1-.67.32,1.6,1.6,0,0,1-.81-.41,1.9,1.9,0,0,1-.81.14c-.21,0-.34-.17-.62-.14C36.25,5,36,5,36,4.84c-.16.07-.13.35-.45.27,0-.08.06-.1.05-.18s-.45-.06-.59-.18c-.12,0-.17.13-.26.18-.28-.07-.51.06-.68-.14-.07,0-.07.22,0,.18a.58.58,0,0,1-.58.09c0-.07,0-.08.09-.09-.14-.19-.55,0-.77,0,0-.06-.11,0-.17,0,0-.28.61,0,.71-.22.19,0,.53.08.59-.09s-.27,0-.32,0a.34.34,0,0,1,.45,0c.14,0,.33,0,.36-.18s-.11-.1-.22-.09.09-.08.18-.09,0-.18.13-.22.09.12.23.09.22-.08.4,0,.17,0,.18-.13a20.32,20.32,0,0,1,4.31-.14c.08,0,.09,0,.18,0h.31c.45-.05.93,0,1.39-.05s1.07,0,1.53-.08c.15,0,.22.07.4,0s.33,0,.27.18-.21.15-.36.18-.27.06-.36.13a2.4,2.4,0,0,0-.58,0,1.09,1.09,0,0,1,.41.18,6.37,6.37,0,0,1,1,0c.11,0,.14-.07.23-.09a2.57,2.57,0,0,0,1.43-.13C45,3.92,44.31,4,44,3.67c0-.19.33-.14.49-.22s.13-.11.27-.09.25,0,.18-.13a1,1,0,0,0,.49.13c.79-.13,1.68.09,2.38,0a4.77,4.77,0,0,0,1-.09,15.43,15.43,0,0,1,1.75-.45h.22c.43-.18.77-.18,1.17-.36.4.06.56-.13.94-.09.09,0,.12-.09.18-.13a3.07,3.07,0,0,0,1.12-.27c.22.13.38-.1.59,0s.09-.12.18-.14.21-.1.31,0,.17,0,.18-.13c.23.07.49-.12.81-.09.26-.12.59-.19.85-.32a.29.29,0,0,1,.22.05A1.2,1.2,0,0,1,58,1.16,1.57,1.57,0,0,1,58.9,1c0-.08.22,0,.18-.14h.22s0,0,.05-.09c.22.05.44-.15.58,0s.09-.09.18-.09a.12.12,0,0,1,.13.09c.16,0,.29-.19.41-.09s0-.09.09-.09c.34.08.83-.21,1.07-.09.09-.15.37-.11.5-.23s.11.07.22.05a3.09,3.09,0,0,0,.32-.14A6.47,6.47,0,0,0,64.46,0c.32,0,.51.13.68,0,.08.12.14.06.31,0s0,.06.09,0a2.79,2.79,0,0,1,.58,0c.1,0,.12,0,.18,0s.12.08.23.09h.18c.11,0,.22,0,.36,0a1.54,1.54,0,0,0,.8.18,1.25,1.25,0,0,0,.54.27c.1.11.18.24.36.27,0,.31.3.39.36.67l.36.36c0,.08,0,.1,0,.18a14.71,14.71,0,0,0,2.2-.13c.22.07.56,0,.68.18.11,0,.14-.09.22,0s.07-.09.14-.09.31.07.27-.09c.14,0,.09.11.18.13s.17-.07.13-.22c.06,0,.08.09.09.18s.09-.09.18-.09.14.08.13.09.09-.14.23-.14,0,.07,0,.14.13,0,.13,0,.22-.1.23,0,0-.1.13-.09.29.13.41.23c.29,0,.36,0,.58-.05.07.11,0,.19,0,.23s.1-.09,0-.09c.21-.16.27,0,.49-.09,0,.07,0,.07,0,.13S76,2.27,76,2.2s.13.07.27,0-.25,0-.18.14.29,0,.22-.14c.1,0,.1.07,0,.14.23.06.19-.14.4-.09s.08,0,.14,0S76.81,2.39,76.81,2.46ZM71.73,2s0-.05,0,0S71.73,2.07,71.73,2Zm1.26,0h-.13s-.09,0-.09,0S73,2.16,73,2.06Zm-3.41.23h.13V2.2h-.13Zm.27-.09s-.09,0-.09,0S69.85,2.24,69.85,2.2Zm1.66,0s-.09,0-.09,0S71.51,2.24,71.51,2.2Zm.13,0s-.06,0,0,0S71.67,2.22,71.64,2.2Zm4,.13c-.07.14.23.12.22,0S75.67,2.25,75.6,2.33Zm-5.35.13h.09V2.38h-.09Zm1,0s-.07,0-.05,0S71.31,2.44,71.29,2.42Zm5.2.22c.17,0,.14-.13.05-.18A.24.24,0,0,1,76.49,2.64Zm-6.64,0c-.24-.05,0,.14,0,0Zm-.14.31q.17,0,.18-.09C69.81,2.83,69.67,2.78,69.71,2.91ZM41.84,4.21c0-.08-.05-.1-.14-.09C41.06,4.15,40.61,4,40,4c-.12.21-.45.21-.54.45.18,0,.21.14.45.09h.58a8.36,8.36,0,0,1,1.3-.23c.07,0,.12.07.18.09s.3-.09.41-.18C42.22,4.06,42,4.16,41.84,4.21ZM71.15,4c-.1,0-.17.07-.31,0s0,.17-.14.18c-.39,0-.55-.16-.94-.13.08.15-.09.24-.09.45.53-.06.87-.3,1.44-.32.08,0,0-.17.18-.13-.1.1,0,.09.13.09C71.47,4,71.24,4.05,71.15,4Zm-35.78.09a.49.49,0,0,0-.54.27c.13.09.26-.08.32.09-.06,0-.11,0-.09.09s-.19-.14-.18,0a1.05,1.05,0,0,0,.9,0C35.83,4.22,35.54,4.21,35.37,4.08Zm7,.31a.12.12,0,0,0,.13-.09C42.44,4.31,42.35,4.3,42.38,4.39Zm-.09,0s-.09,0-.09,0S42.29,4.39,42.29,4.35Zm-11.67.13c.06-.14-.27-.11-.27,0S30.5,4.49,30.62,4.48Zm-.36.31c.11,0,.38.09.36-.08C30.5,4.74,30.23,4.62,30.26,4.79Zm11.08.36c.19-.06.15.1.27.09s.19,0,.18-.18c-.18-.07-.31-.19-.49-.27C41.2,4.9,41.34,5,41.34,5.15Zm-13.19.14c0,.07.37.07.4,0S28.18,5.07,28.15,5.29Zm1.79.22h-.49c0-.11-.08.06-.18,0,.06.21.27,0,.4.09a.31.31,0,0,1,.23,0c.05,0,.06-.06.13,0s.2-.07.45,0C30.46,5.37,30.05,5.49,29.94,5.51Zm-1.52.54A.92.92,0,0,0,29,6c-.11-.08-.38,0-.44-.13C28.51,5.94,28.43,6,28.42,6.05ZM33.26,6c.07,0,.16,0,.14-.09h-.09S33.27,5.92,33.26,6Zm-2.69.36c.19,0,.38,0,.4-.14C30.76,6.15,30.69,6.26,30.57,6.32Zm39.77-.09s-.21-.11-.22,0S70.31,6.36,70.34,6.23ZM29,6.41l-.67,0c-.12.06-.34,0-.36.18a1.89,1.89,0,0,0,1,.18c0-.21.4,0,.45-.22C29.18,6.54,29.11,6.44,29,6.41Zm2.65.22h-.4c-.11,0-.1-.08-.23,0s-.2,0-.31,0c-.28-.09-1-.29-1.12.09.15.12.51-.13.63.09-.08,0-.23,0-.18.09.74,0,1.35-.14,2.11-.13C32.06,6.59,31.73,6.72,31.6,6.63Zm4,.23s-.09,0-.09,0S35.64,6.9,35.64,6.86Zm-2,.4c-.28,0-.1.14,0,0Zm-.22,0s-.07,0,0,0S33.42,7.33,33.4,7.3Zm4.08,2c.1,0,.6-.08.5-.22C37.82,9.18,37.52,9.12,37.48,9.32Zm-.58.27c.17,0,.13-.05.27,0C37.21,9.39,36.9,9.45,36.9,9.59Zm2.06,0h.14V9.5H39Zm.32,0c-.11.15.15-.11,0,0Zm-1.84.22s.05,0,0-.09c-.24,0-.44.07-.67.09.09.32.58.23.72.5.16,0,.19.07.36,0,0,0,0,0,.09,0,.08-.17,0-.27,0-.41C37.86,9.71,37.53,9.83,37.44,9.81ZM36.05,10c.15,0,.31,0,.36-.09C36.25,9.9,36.12,9.91,36.05,10Zm-2.88.58a.88.88,0,0,1-.62.14c0,.15-.21.13-.27.22s-.05,0,0,.05,0,0,.09-.05c.07.31-.34.15-.32.41.16.07.36-.13.59-.14a1.06,1.06,0,0,0,.67-.18,4.22,4.22,0,0,0,1-.27c.17.11.45-.05.58-.13a.39.39,0,0,0,.36-.09c0,.05,0,.11.09.09s.32,0,.58,0l.14-.27c-.3,0-.3-.24-.5-.31-.13.16-.4.19-.49.4a2,2,0,0,0-.54.22,2.6,2.6,0,0,0-.85.18c0-.08-.18,0-.14-.18.25-.08.63,0,.72-.26C33.85,10.41,33.55,10.68,33.17,10.57Zm-1.7.45a.3.3,0,0,1,0,.23c-.14,0-.24.13-.36.18s-.23,0-.31.09-.15-.15-.27-.18c-.31-.09-.26.19-.54.13-.05.16-.18.24-.27.36-.3-.12-.63,0-.94,0-.14.12.12.17,0,.27-.61.13-1.3-.09-1.53.41a6.12,6.12,0,0,0,1.39-.27c.29.12.63-.06,1,0,.09-.12.28-.15.41-.23.38,0,.46-.22.85-.18.14-.13.43-.14.63-.22,0-.17.15-.24.27-.31s.23.15.22-.05-.24,0-.22-.09.2-.12.09-.22S31.61,11,31.47,11Zm-.63.27c.14,0,.44-.1.22-.18C31,11.21,30.81,11.13,30.84,11.29ZM13,11.74s-.07,0,0,0S13,11.76,13,11.74Zm13.47.9s-.12,0,0,0a.82.82,0,0,1,.49-.09c0-.19.28-.11.27-.31-.23-.11-.49.14-.67,0,0-.2.38-.06.4-.27-.24,0-.5,0-.58.23A2.65,2.65,0,0,1,26.49,12.64Zm-14.37-.09a.12.12,0,0,0,.13-.09C12.18,12.46,12.1,12.45,12.12,12.55Zm12.61.09c0,.1-.22,0-.31,0s-.17.07-.22.14a.86.86,0,0,0-.45.13c-.17,0-.43,0-.5.13a2.63,2.63,0,0,0,1-.13c.19.12.3,0,.4,0s.14.1.18,0S24.88,12.7,24.73,12.64ZM11.27,13.89s0-.05,0,0S11.26,13.94,11.27,13.89ZM11,15.15c.18,0,.2.07.09.17.22,0,.22-.17.27-.31A.44.44,0,0,0,11,15.15Zm1.89.44s-.07,0-.05.05S12.86,15.62,12.84,15.59Zm-.09.81c.17,0,.38-.19.31-.27C13,16.21,12.75,16.21,12.75,16.4Zm14.86.9h.09v-.09h-.09Zm-3.68.13s-.07,0-.05.05S24,17.45,23.93,17.43Zm-.59.09c-.05,0-.06-.06-.13,0S23.36,17.61,23.34,17.52Zm2,0c0,.21-.27.11-.36.22a1.09,1.09,0,0,0,.54-.09c-.06-.1.12-.16,0-.17S25.43,17.52,25.36,17.52Zm-1.21.31c-.27,0-.62,0-.72.14.33-.07.81,0,1-.18C24.31,17.75,24.21,17.72,24.15,17.83Zm-.94,0s-.09,0-.09.05S23.21,17.88,23.21,17.83Zm-10.87.23c.07,0,.16,0,.14-.09h-.09S12.35,18,12.34,18.06Zm10.73,0c.13,0,.23,0,.27-.09S23,17.9,23.07,18.06Zm-.67.09c-.07,0-.17,0-.18,0S22.39,18.25,22.4,18.15Zm-8.48.13c-.07-.06-.36-.09-.36,0,.29,0,.67.09.85-.09C14.27,18.13,14,18.24,13.92,18.28Zm9.87.18s-.07,0,0,.05S23.81,18.48,23.79,18.46Zm2.87,0s-.06,0,0,.05S26.69,18.48,26.66,18.46Zm-12.52.36c-.18-.16-.11.14,0,0Zm1.48,0c-.23.11.16.12,0,0ZM24.2,19s-.07,0-.05.05S24.22,19,24.2,19Zm-1.71.18a.37.37,0,0,0,0,.23c.1,0,.15,0,.14-.14s.14,0,.13-.13S22.55,19.07,22.49,19.13ZM16,19.36c.11,0,.22,0,.23-.09S16,19.2,16,19.36Zm4.27.22a.42.42,0,0,0,.4-.18C20.54,19.49,20.22,19.36,20.25,19.58Zm-5.71.23c.12,0,.22,0,.23-.09S14.5,19.65,14.54,19.81Z"/><path class="cls-1" d="M6,11c-.2.13-.41-.22-.54,0-.13,0-.05-.17-.14-.18s-.11.13-.18.18a2,2,0,0,0-.67.4.39.39,0,0,0-.36.09c-.18,0-.19-.2-.36-.22.09-.08.09-.25.27-.23,0-.44.42-.54.94-.49.09,0,.09-.12.18-.13s-.08-.14,0-.27.13.17.27.18,0-.14,0-.27c.22,0,.06.15.14.22.24,0,.48-.11.53-.36.54-.1.55.32.81.5-.07.12-.21.17-.18.4-.36-.13-.27.17-.58.18v.18c0,.08.08.1.18.09,0,.15.16.07.18.18s0-.18.18-.14a.2.2,0,0,1,0,.14c.28.1.29.46.54.58-.14.26-.73.06-.94.13,0-.21.18-.2.31-.27a3.17,3.17,0,0,0-.45-.35C6.1,11.29,6.15,11.18,6,11Z"/><path class="cls-1" d="M76.09,13.4c.15.13-.24.26-.32.18C75.87,13.51,76.05,13.53,76.09,13.4Z"/><path class="cls-1" d="M73,14.07s0,0,0,0,0,.05-.05.08,0,0,0,0Z"/><path class="cls-1" d="M74.7,14h.18c0,.09-.17,0-.18.13S74.72,14.06,74.7,14Z"/></g></g></svg>