<svg xmlns="http://www.w3.org/2000/svg" viewBox="0 0 88.8 26.5">
  <defs>
    <style>
      .a {
        fill-rule: evenodd;
        fill: #f2bc50;
      }
    </style>
  </defs>
  <title>splatter-less-optimised</title>
  <g>
    <path class="a" d="M965.1,528.9c.2,0,.3.1.3.2S965,529.2,965.1,528.9Z" transform="translate(-915.7 -527.6)"/>
    <path class="a" d="M989.6,529.3h.1C989.7,529.4,989.6,529.4,989.6,529.3Z" transform="translate(-915.7 -527.6)"/>
    <path class="a" d="M988.3,529.3c-.1.2-.3,0,0,0Z" transform="translate(-915.7 -527.6)"/>
    <path class="a" d="M989.4,529.4h.1C989.5,529.4,989.5,529.4,989.4,529.4Z" transform="translate(-915.7 -527.6)"/>
    <path class="a" d="M988.3,529.4h0Z" transform="translate(-915.7 -527.6)"/>
    <path class="a" d="M990.4,529.4c0,.1,0,.1-.1.1S990.4,529.4,990.4,529.4Z" transform="translate(-915.7 -527.6)"/>
    <path class="a" d="M989.4,529.5Z" transform="translate(-915.7 -527.6)"/>
    <path class="a" d="M990.1,529.5a.1.1,0,0,1,.1-.1C990.2,529.5,990.2,529.5,990.1,529.5Z" transform="translate(-915.7 -527.6)"/>
    <path class="a" d="M989.2,529.5h0Z" transform="translate(-915.7 -527.6)"/>
    <path class="a" d="M990.3,529.6h.1C990.6,529.6,990.2,529.7,990.3,529.6Z" transform="translate(-915.7 -527.6)"/>
    <path class="a" d="M991.1,529.6h0Z" transform="translate(-915.7 -527.6)"/>
    <path class="a" d="M991.6,529.6c0-.1.1,0,.1,0S991.6,529.7,991.6,529.6Z" transform="translate(-915.7 -527.6)"/>
    <path class="a" d="M991.4,529.6h.1S991.4,529.7,991.4,529.6Z" transform="translate(-915.7 -527.6)"/>
    <path class="a" d="M990.9,529.7h0C991,529.7,990.9,529.8,990.9,529.7Z" transform="translate(-915.7 -527.6)"/>
    <path class="a" d="M994.9,530.9a.1.1,0,0,1,.1-.1Z" transform="translate(-915.7 -527.6)"/>
    <path class="a" d="M960.8,530.9s0-.1.1,0Z" transform="translate(-915.7 -527.6)"/>
    <path class="a" d="M958.9,531a.1.1,0,0,0,.1-.1C959,531,959,531,958.9,531Z" transform="translate(-915.7 -527.6)"/>
    <path class="a" d="M957,531.8h.1S957,531.9,957,531.8Z" transform="translate(-915.7 -527.6)"/>
    <path class="a" d="M923.9,532.9c0,.3-.3.1-.5.1h-1.3l-.7.2h-2.5a1.1,1.1,0,0,1-.8.1l-.9.5-.7.3c0,.1-.3-.1-.2.1a1,1,0,0,1-.1-1.2l1.1-.2h.3a16.2,16.2,0,0,1,2.2,0,1.9,1.9,0,0,1,1.1-.1c.2-.2.8-.1,1.1-.2h1.5C923.7,532.7,923.9,532.7,923.9,532.9Z" transform="translate(-915.7 -527.6)"/>
    <path class="a" d="M945.9,532.7h0Z" transform="translate(-915.7 -527.6)"/>
    <path class="a" d="M948.4,532.7c0-.1.1,0,.1,0Z" transform="translate(-915.7 -527.6)"/>
    <path class="a" d="M948.4,532.8c-.1,0-.1.1,0,.1H948l-.9-.2h1.3Z" transform="translate(-915.7 -527.6)"/>
    <path class="a" d="M951.2,532.9c0,.2.1.3.4.3h-.7c-.1-.2.2-.2,0-.2Z" transform="translate(-915.7 -527.6)"/>
    <path class="a" d="M946.7,533.1s0-.1.1,0Z" transform="translate(-915.7 -527.6)"/>
    <path class="a" d="M952,533.1s.2,0,.2.1-.2-.1-.2,0S952,533.1,952,533.1Z" transform="translate(-915.7 -527.6)"/>
    <path class="a" d="M948.1,533.1h0Z" transform="translate(-915.7 -527.6)"/>
    <path class="a" d="M953,533.2h0Z" transform="translate(-915.7 -527.6)"/>
    <path class="a" d="M952.6,533.3h0Z" transform="translate(-915.7 -527.6)"/>
    <path class="a" d="M953.3,533.5c-.3.2-1,.3-1.1-.1s-.1.2-.2.1-.4,0-.6,0,.3-.1.5-.1h.5c0-.1,0-.1.1-.1s0,.1.1.2S953,533.5,953.3,533.5Z" transform="translate(-915.7 -527.6)"/>
    <path class="a" d="M954,533.5c-.2,0-.4.2-.5,0s.4,0,.4-.1A.1.1,0,0,1,954,533.5Z" transform="translate(-915.7 -527.6)"/>
    <path class="a" d="M951.6,533.9a2.7,2.7,0,0,1-.9,0c-.1,0-.1,0-.1-.1S951.3,533.9,951.6,533.9Z" transform="translate(-915.7 -527.6)"/>
    <path class="a" d="M1004.6,534.1c-.1.2-.5.3-.6.1A.5.5,0,0,1,1004.6,534.1Z" transform="translate(-915.7 -527.6)"/>
    <path class="a" d="M948.9,534.3h-.4C948.5,534.2,948.8,534.2,948.9,534.3Z" transform="translate(-915.7 -527.6)"/>
    <path class="a" d="M930.1,534.6h0Z" transform="translate(-915.7 -527.6)"/>
    <path class="a" d="M923.6,535c.1.2-.2.3-.4.2h0C923.2,535,923.5,534.9,923.6,535Z" transform="translate(-915.7 -527.6)"/>
    <path class="a" d="M922.5,535.3a.3.3,0,0,1-.5.1C922,535.1,922.4,535.1,922.5,535.3Z" transform="translate(-915.7 -527.6)"/>
    <path class="a" d="M948.6,538.5h.1C948.7,538.5,948.7,538.5,948.6,538.5Z" transform="translate(-915.7 -527.6)"/>
    <path class="a" d="M999.1,540.5h.1C999.2,540.5,999.2,540.5,999.1,540.5Z" transform="translate(-915.7 -527.6)"/>
    <path class="a" d="M994.5,540.5c.1,0,.1.1.1.2a.1.1,0,0,0-.1-.1Z" transform="translate(-915.7 -527.6)"/>
    <path class="a" d="M994.5,541s-.2-.1-.2,0S994.6,540.8,994.5,541Z" transform="translate(-915.7 -527.6)"/>
    <path class="a" d="M992.7,541Z" transform="translate(-915.7 -527.6)"/>
    <path class="a" d="M993.4,540.9c0,.2,0,.2-.1.2S993.3,540.9,993.4,540.9Z" transform="translate(-915.7 -527.6)"/>
    <path class="a" d="M993.9,541c.2-.1.2.2,0,.1Z" transform="translate(-915.7 -527.6)"/>
    <path class="a" d="M990.3,541.1c.2,0,0,.2-.1.2S990.3,541.2,990.3,541.1Z" transform="translate(-915.7 -527.6)"/>
    <path class="a" d="M992.6,541.1h-.4C992.2,541.1,992.5,541.1,992.6,541.1Z" transform="translate(-915.7 -527.6)"/>
    <path class="a" d="M992.8,541.2c0-.1,0-.1.1-.1A.1.1,0,0,1,992.8,541.2Z" transform="translate(-915.7 -527.6)"/>
    <path class="a" d="M989.8,541.2h0Z" transform="translate(-915.7 -527.6)"/>
    <path class="a" d="M989.7,541.3c-.1,0,0-.1,0,0Z" transform="translate(-915.7 -527.6)"/>
    <path class="a" d="M989.9,541.3Z" transform="translate(-915.7 -527.6)"/>
    <path class="a" d="M926.2,541.4c-.1-.1.2,0,.1.1h-.1Z" transform="translate(-915.7 -527.6)"/>
    <path class="a" d="M926.2,541.6c.1-.1.1-.1.1,0Z" transform="translate(-915.7 -527.6)"/>
    <path class="a" d="M926.6,541.7h.1C926.5,541.8,926.5,541.7,926.6,541.7Z" transform="translate(-915.7 -527.6)"/>
    <path class="a" d="M988.3,541.7h0Z" transform="translate(-915.7 -527.6)"/>
    <path class="a" d="M989.9,541.7h0C990,541.7,989.9,541.8,989.9,541.7Z" transform="translate(-915.7 -527.6)"/>
    <path class="a" d="M985.3,542.2Z" transform="translate(-915.7 -527.6)"/>
    <path class="a" d="M984.4,542.3h.2C984.7,542.4,984.3,542.4,984.4,542.3Z" transform="translate(-915.7 -527.6)"/>
    <path class="a" d="M983.9,542.4c0-.1.2,0,.3-.1S984.1,542.3,983.9,542.4Z" transform="translate(-915.7 -527.6)"/>
    <path class="a" d="M922.7,545.6h0C922.8,545.6,922.7,545.7,922.7,545.6Z" transform="translate(-915.7 -527.6)"/>
    <path class="a" d="M922.5,545.6c.2.2,0,.3-.1.4s-.4-.1-.6-.2S922.4,545.8,922.5,545.6Z" transform="translate(-915.7 -527.6)"/>
    <path class="a" d="M918.1,546l.8-.2c0,.5-.8.2-.8.7s.3,0,.3,0-.1.1-.1.3a.5.5,0,0,0,.6-.3c.1.1.2.3.4.3s-.2.1-.3.1l.3.4a5.8,5.8,0,0,0,1.4-.3l.2-.2h.3c.1,0,.1-.1.2,0s.1.1.3,0l-.4.2-.8.2c.2.2.6,0,.8,0s0,.2.1.2-.1.1-.1.2-.6,0-.9-.1-.4.4-.7.5h-.6c.1-.1.2-.2.2-.3h.3a7.8,7.8,0,0,0-2.1.4c-.1,0,0-.1-.1-.1s-.1.2-.2.2-.1-.2-.2-.2-.3,0-.3-.2h.6c.2,0,.1-.3.2-.3s-.5-.4-1-.3l-.4-.3c-.2,0-.3.1-.4,0s.3-.3.4-.4.7-.2.8-.4.7-.3,1.1-.2S918.1,545.9,918.1,546Z" transform="translate(-915.7 -527.6)"/>
    <path class="a" d="M920.4,546h.3c-.1.1-.1.3,0,.3s-.2,0-.3.1,0-.1,0-.1-.1,0-.2-.1S920.5,546.3,920.4,546Z" transform="translate(-915.7 -527.6)"/>
    <path class="a" d="M921.6,546c0,.1-.1.1-.2.1Z" transform="translate(-915.7 -527.6)"/>
    <path class="a" d="M919.9,546.1h.1c0,.1-.1.1-.1.2s.3,0,.3.2-.1.2-.3.1-.2,0-.3-.2S919.8,546.2,919.9,546.1Z" transform="translate(-915.7 -527.6)"/>
    <path class="a" d="M919.6,546.3h-.3C919.3,546.2,919.7,546.1,919.6,546.3Z" transform="translate(-915.7 -527.6)"/>
    <path class="a" d="M945.2,546.5h.1S945.2,546.6,945.2,546.5Z" transform="translate(-915.7 -527.6)"/>
    <path class="a" d="M922.4,546.9c-.1-.1-.2-.1-.2,0s0-.1-.1-.1S922.5,546.7,922.4,546.9Z" transform="translate(-915.7 -527.6)"/>
    <path class="a" d="M926.1,546.8c0,.1-.1.3-.2.2h.2Z" transform="translate(-915.7 -527.6)"/>
    <path class="a" d="M925.5,547c0,.1-.1.1-.1.2s-.2-.1-.1-.2S925.5,546.9,925.5,547Z" transform="translate(-915.7 -527.6)"/>
    <circle cx="7.4" cy="20.1" r="0.1"/>
    <path class="a" d="M934.8,547.7h-.2C934.5,547.6,934.7,547.7,934.8,547.7Z" transform="translate(-915.7 -527.6)"/>
    <path class="a" d="M921.9,547.8a.2.2,0,0,1,.2.2h-.2Z" transform="translate(-915.7 -527.6)"/>
    <path class="a" d="M921.2,548a.1.1,0,0,1,.1-.1A.1.1,0,0,1,921.2,548Z" transform="translate(-915.7 -527.6)"/>
    <path class="a" d="M920.6,548c.1-.1.2.1.2.1S920.7,548,920.6,548Z" transform="translate(-915.7 -527.6)"/>
    <path class="a" d="M920.4,548c.1,0,.1.1.1.2S920.4,548.1,920.4,548Z" transform="translate(-915.7 -527.6)"/>
    <path class="a" d="M928.4,548.2a.1.1,0,0,1,.1-.1A.1.1,0,0,1,928.4,548.2Z" transform="translate(-915.7 -527.6)"/>
    <path class="a" d="M919.1,548.4h-.4A.3.3,0,0,1,919.1,548.4Z" transform="translate(-915.7 -527.6)"/>
    <path class="a" d="M922.5,548.6c-.1.4-.4.2-.6.3S922.3,548.7,922.5,548.6Z" transform="translate(-915.7 -527.6)"/>
    <path class="a" d="M921.8,548.9c0,.1-.3.1-.4.1S921.7,548.8,921.8,548.9Z" transform="translate(-915.7 -527.6)"/>
    <path class="a" d="M924.5,549.1h0C924.6,549.1,924.5,549.2,924.5,549.1Z" transform="translate(-915.7 -527.6)"/>
    <path class="a" d="M926.5,549.2c0-.1.1,0,.1-.1A.1.1,0,0,1,926.5,549.2Z" transform="translate(-915.7 -527.6)"/>
    <path class="a" d="M926.7,549.2h.1A.1.1,0,0,1,926.7,549.2Z" transform="translate(-915.7 -527.6)"/>
    <path class="a" d="M927.3,549.5c-.1.2-.1-.1,0,0Z" transform="translate(-915.7 -527.6)"/>
    <path class="a" d="M926,549.8h.4C926.3,550,926.1,549.9,926,549.8Z" transform="translate(-915.7 -527.6)"/>
    <path class="a" d="M925.3,550.1c0,.2-.2.1-.4.1Z" transform="translate(-915.7 -527.6)"/>
    <path class="a" d="M939.6,553.8c.1-.1.1.1.1.1A.1.1,0,0,1,939.6,553.8Z" transform="translate(-915.7 -527.6)"/>
    <path class="a" d="M939.4,554h0Z" transform="translate(-915.7 -527.6)"/>
    <path class="a" d="M949.6,532Z" transform="translate(-915.7 -527.6)"/>
    <path class="a" d="M992.5,530.1c.1.1.1-.1.2,0h.5c0,.1.2,0,.2.2h.3c0,.3.3.3.5.4s-.2,0-.1-.2.2,0,.2.3h.3c0,.2.1.2.1.3h.5c.1.2-.1.1-.1.2s.2.1.3,0,.1.1.1.2h.5c.2,0,.3.2.5.3h-.1l.6.3c.2.1.2.3.3.3h0c.3.1.4.4.6.6s.1.1.1.2.4,0,.5.2.8.1,1.2-.1h1a5.7,5.7,0,0,1,1.9.1c-.1.2,0,.3-.1.4s-.1.7-.1,1-.2.8-.5.9a1.9,1.9,0,0,1-.5,1v.4c-.1,0-.1.1-.1.2l-.5.2c.1.4.1.5-.1.7a.7.7,0,0,0-.8.2c.1.2.3.3.3.5h-.2c0,.1.2.1.1.2l-.6.2c-.1.1,0,.2.1.2s-.3,0-.4.1.3,0,.2.2.4,0,.4.3-.3,0-.4-.1a2.6,2.6,0,0,1-1.5.1h-1l-.3.2c-.1.1-.1,0-.2,0s-.3.1-.4.3a.5.5,0,0,0-.5,0c0-.5-.5-.1-.6-.4h-.3c0-.1,0-.1-.1-.1l-.9.4h-1v-.2h-.5c-.1.1-.1-.1-.2-.1s-.2.1-.2.3H991a.7.7,0,0,1,.1.5c-.1.1-.2.2-.4.1a.1.1,0,0,0-.1-.1c-.1-.1.1-.1-.1-.1s.2-.1.2-.2.1-.2.1-.3h-1.9c0,.2.2.1.1.3h-.5c-.2,0-.1.2-.1.2s0-.1-.1-.2-.1,0-.2-.1a.9.9,0,0,0-.6.3c0,.1.1.2,0,.3s0-.3-.1-.5h.3c0-.1-.2,0-.2-.2h-.3l-.3.2a.9.9,0,0,1-.3.7h-.2a.5.5,0,0,1,.2-.4h-.2a.2.2,0,0,0-.2-.2l-.9.2c.2.2.6,0,.9,0H986c.1.2,0,.1-.1.2s-.4-.2-.6,0-.1-.2-.3-.2-.3.1-.4.3a.1.1,0,0,1-.1-.1H984c-.2,0-.2.2-.4.1h-.3a.2.2,0,0,1-.2.2l-.2-.3h-.4l-.2.3c-.2-.1-.4.1-.6,0s.1,0,.1-.2-.2.1-.3.1H981c-.3.1-.4.3-.8.2h-.4l-.2.2c-.3,0-.7.2-1,.1h-1.5c-.4.1-1,.4-1.4.3s-.9.1-1.2.4,0-.1-.1-.1l-.3.2H973c-.1,0-.1-.1-.3,0s-.1,0-.2,0a2.5,2.5,0,0,0-1.2.1c-.1.1-.2.1-.2.3s-.4.1-.6,0h-.3a16.6,16.6,0,0,0-2.2.3c-.3.1-.8,0-1,.2h-.9c-.3.1-.5,0-.7.2s-.7.1-1.2.1h-2.9l-1.3.3h-.6c-.2,0-.6.2-.8.1s-.1.1-.2.1-.6.2-1,.1l-.7.2h-.4c-.5.3-1.2.2-1.8.4a4.8,4.8,0,0,0-1.2,0c0-.2-.3-.1-.4-.2h-.3l-1,.2a6.1,6.1,0,0,0-1.3.3h-.1l-1.4.4c.1-.2.1-.1,0-.3s-.2.2-.4.1-.4.3-.5.5.1.1.1.2-.4.3-.6.2.1-.3,0-.4l-.9-.4-.5-.7a.5.5,0,0,1-.2-.4h-.1c-.1-.1-.1,0-.2,0a.1.1,0,0,1,.1-.1c0-.2-.2-.3-.2-.5s-.6,0-.9.2-.3-.2-.4-.1h-1.5c-.1.1-.2-.2-.2.1s-.1-.1-.2-.1h-.6c-.1,0,.1.1,0,.3s-.4.2-.5,0,.2-.2.3-.2-.6,0-1,0H940l.4.2.5-.2c-.1.1.1.2,0,.2h-.6l-1,.2h-1a6.1,6.1,0,0,1-1.3.3h-.6c-.3-.1-.7.2-1,0h-.3c-.2,0-.2.2-.4.1s0,0,.1-.1h-.4c-.2,0,0,.1-.1.1h-.6a.1.1,0,0,1-.1-.1h-.4c0,.1,0,.2.1.2s-.5,0-.6.2-.2-.1-.4-.1.4-.1.5-.3h-2v-.2c-.1,0,0,.2-.2.2s-.5,0-.6-.2h-1.4l1.5-.2c0-.2-.2,0-.4-.1s-.1,0-.3,0a1.1,1.1,0,0,1-.8.1,8.5,8.5,0,0,1-1.7.6h-.3c-.2,0-.2.2-.4.3h-.3c-.2,0-.4.3-.8.3a5,5,0,0,1-1.3.3h-.2c-.2-.1-.5,0-.6,0s.3-.4.7-.4a1.1,1.1,0,0,1,.6-.2c.3-.3.8-.2,1.2-.4s.2-.1.2-.2h.4c.3,0,.5,0,.6-.2h.3c.3-.1.5-.4.8-.3h.6c.1,0,.1-.1.2-.2l.5-.2a.2.2,0,0,0,.3,0c-.4-.2-1.1.2-1.4-.1s.2,0,.3-.1,0-.2.1-.2.2,0,.4,0-.1.1-.1.2l.4-.2c0-.1-.2-.1-.2-.2h-.5c-.3-.1-.7.1-1,.2h-.5l-.3.2c-.1,0-.1,0-.1-.1l-.4.3c-.1,0-.1-.1-.3,0s-.4.1-.5.3-.2-.1-.2,0a.4.4,0,0,0-.6.2c0,.2.1.1.1.3s-.2-.1-.3-.3-.2.1-.3,0-.1-.2-.3-.2,0,.1-.1.1-.2,0-.3-.1-.3,0-.3-.1.3-.1.5-.3.2.1.4,0,.1-.1.2-.2.1-.1.3-.1-.2-.3,0-.5h-.3c.1,0,.1-.1,0-.1h-.7c0-.1.3-.1.4-.1l.4-.3c.2.1.1.2.3.1s0-.2.1-.3.1-.1.2-.2.6-.5,1-.7a.3.3,0,0,1,.1-.2c.2,0,.3-.2.4-.2s.5-.2.5-.6-.1,0-.1-.1l-.5.3c-.2-.1-.3.1-.5.1s.2-.3.4-.4l.4-.2h-1c.1-.2.3-.1.4-.2h.7c0-.2-.1-.2-.3-.2s.4,0,.5-.2-.2-.1-.2-.1.3-.1.4-.2h-.2c0-.1,0-.2.1-.2h-.5l.3-.2c0-.1-.3,0-.2-.1s.3-.2.4-.2-.1.1-.2,0,.1-.1.1-.2l.8-.2c-.2-.2-.6,0-.9,0s.8-.3,1.1-.5a.6.6,0,0,1-.1-.4h.7a.4.4,0,0,1,.1-.3h-.6l1.3-.4c0-.1.1-.2.1-.3s.5-.1.5-.5h-.1c-.2-.1-.2.1-.4.1a1.7,1.7,0,0,1-.1-.7c0-.2.1-.3,0-.5s.7-.6,1-1,.8-.6,1.4-.7h.9c.2-.1.5,0,.6-.2s-.3-.1-.4-.3-.4-.1-.5,0l-1-.2h-.7c0-.2.4-.1.5-.2h.6a1.5,1.5,0,0,0-1-.2c0-.3.3-.2.4-.2s-.1-.1-.2-.2l-.4-.5a.5.5,0,0,1-.4-.2c-.6-.1-1.3.1-1.8-.2H928a12.6,12.6,0,0,0-2.8.1H925c-.3,0-.5.2-.7,0s.2-.1.2-.2a12,12,0,0,1,1.9,0,.6.6,0,0,1,.6,0,1.4,1.4,0,0,1,1.1-.1h1.6a4.3,4.3,0,0,0,1.7-.4,1.2,1.2,0,0,0,.9-.3c.2,0,.2.2.4.2H934a2.7,2.7,0,0,0,1.3-.2h.5a9.6,9.6,0,0,1,1.7,0h.2l.5.2a26.2,26.2,0,0,1,2.8.1h7.5c0,.2.4,0,.4.1s.3,0,.4,0,.3,0,.3.1l-.6.2h-.7c-.1,0-.2.1-.1.1l-.4.3h-.5a.5.5,0,0,0-.4.2h-1.4c-.1,0-.4-.1-.3.1s.5,0,.7.1.5-.2.7-.1h-.2c0,.1.2.3,0,.3h.9c-.1.1.1.1.1.2s-.5,0-.7,0h-1.3c0,.3.3.2.4,0h1l1.2-.2c0,.1-.1.1-.1.2a2.7,2.7,0,0,0,.9,0h-.3c.1-.2.3-.2.5-.2l.4-.2c.2,0,.3.2.5,0s-.1.1-.3,0,0,0-.1-.1-.4-.1-.6,0,.7-.1,1.1-.1.5-.1.4.2-.3-.1-.5,0,.2,0,.4.1-.2.2,0,.3-.3,0-.5,0,.2,0,.1-.1h-.4c0,.2-.2.2-.3.2s.1,0,.2,0,.3.2.4.3-.4.1-.5.2l-.9.2H948c.1.1.5,0,.5.3a6.5,6.5,0,0,0,1.4,0h.3c.2,0,.7.2.8-.1s.5-.1.8,0h.3a1.4,1.4,0,0,0,.9-.1c-.4-.1-1,.1-1.5,0s.3-.1.5-.2a.1.1,0,0,0,.1-.1h1.3c0,.2-.2.1-.1.2s.8-.2,1.3-.2,0-.1.1-.2h-.4c0-.1.5.1.5-.1h.2l.6-.2c.1,0,.3.1.3-.1s.5.1.8,0-.6.1-.6-.1.2-.1.3-.1.1.1.3,0-.1-.1-.1-.2.2-.3.1-.4-.2.2-.3.2h-.3a1.8,1.8,0,0,1-1.1.4c-.3.1-.4.3-.7.3a1,1,0,0,1-.8-.4h-1.4l-.4-.2c-.1,0-.1.3-.4.2h0c0-.3-.4-.1-.5-.2s-.2.1-.3.2-.5,0-.7-.2-.1.2,0,.2a.6.6,0,0,1-.6.1.1.1,0,0,1,.1-.1c-.1-.2-.5,0-.7,0a.1.1,0,0,0-.2,0c0-.3.6,0,.7-.3s.5.1.6-.1-.3.1-.3,0a.3.3,0,0,1,.4,0,.4.4,0,0,0,.4-.2c0-.1-.1-.1-.3-.1h.2c.1,0,.1-.1.2-.2s0,.1.2.1.2-.1.4,0,.2-.1.2-.2a20.1,20.1,0,0,1,4.3-.1c.1,0,.1-.1.2,0h3.6c0,.1.3-.1.3.1a.4.4,0,0,1-.4.2l-.4.2h-.5l.4.2h1.2a2.3,2.3,0,0,0,1.4-.1c-.5-.1-1.2-.1-1.5-.4s.3-.1.5-.2h.2c0-.1.3,0,.2-.1h.5a18.5,18.5,0,0,0,2.4-.1,3.4,3.4,0,0,0,1,0,9.5,9.5,0,0,1,1.8-.5h.2l1.2-.3c.4,0,.5-.2.9-.1l.2-.2,1.1-.2c.2.1.4-.1.6,0s.1-.2.2-.2.2-.1.3,0,.2,0,.2-.1.5-.1.8-.1l.8-.3h.3a.8.8,0,0,1,.7-.1l.8-.2c.1-.1.3,0,.2-.1h.2a.1.1,0,0,0,.1-.1c.2,0,.4-.2.6,0a.1.1,0,0,0,.1-.1c.1,0,.2,0,.2.1s.3-.2.4-.1h.1c.3.1.8-.2,1.1-.1s.3-.1.4-.2.2,0,.3,0h1.9c.3,0,.5.1.7-.1s.1.1.3.1h1.6a1.1,1.1,0,0,0,.8.1.7.7,0,0,0,.6.3.3.3,0,0,0,.3.3c0,.3.3.4.4.7l.3.3v.2a14.8,14.8,0,0,0,2.2-.1h.9c.1.1,0,0,.1-.1s.3.1.3,0,.1.1.2.1.1-.1.1-.2a.1.1,0,0,1,.1.1c.1.1.1,0,.2,0h.3c.1.1,0,.1,0,.1s.2,0,.2.1.2-.1.2,0a.1.1,0,0,1,.1-.1l.4.2h.6c.1.1,0,.2.1.2s.1-.1,0-.1.3.1.5-.1-.1.1-.1.2.1-.1.1-.2h.3c0,.1-.2-.1-.2.1a.2.2,0,0,0,.3-.1h0c.2.1.2-.1.4-.1a.1.1,0,0,1,.1.1C992.7,530.1,992.5,530,992.5,530.1Zm-5-.5h-.1C987.4,529.7,987.5,529.7,987.5,529.6Zm1.2.1h0Zm-3.4.2h0Zm.3-.1a.1.1,0,0,0-.1.1A.1.1,0,0,0,985.6,529.8Zm1.6,0h0Zm.2,0h-.1C987.4,529.9,987.4,529.9,987.4,529.8Zm3.9.2c0,.1.3.1.3,0S991.4,529.9,991.3,530Zm-5.3.1h0Zm1,0Zm5.2.2c.2,0,.2-.2.1-.2S992.3,530.2,992.2,530.3Zm-6.6-.1c-.3,0-.1.2,0,0Zm-.1.3c.1.1.1,0,.1,0S985.4,530.4,985.5,530.5Zm-27.9,1.3h-.2l-1.7-.2c-.1.2-.4.2-.5.5h1a6.1,6.1,0,0,1,1.3-.3h.2l.4-.2Zm29.3-.2h-.5c-.4.1-.5-.1-.9-.1s-.1.3-.1.5l1.4-.4h.2c-.1.1,0,.1.2.1S987,531.7,986.9,531.6Zm-35.8.1c-.3,0-.5.1-.5.3s.2-.1.3.1-.1,0-.1.1-.2-.2-.2,0,.7.1.9,0S951.3,531.8,951.1,531.7Zm7,.3c.1,0,.1,0,.1-.1A.1.1,0,0,0,958.1,532Zm-.1,0h0Zm-11.6.1c0-.1-.3-.1-.3,0Zm-.4.3c.1,0,.4.1.4-.1S946,532.3,946,532.4Zm11.1.4c.2-.1.1.1.3.1s.1-.1.1-.2l-.5-.3C956.9,532.5,957.1,532.6,957.1,532.8Zm-13.2.1c0,.1.4.1.4,0S943.9,532.7,943.9,532.9Zm1.8.2h-.5c0-.1-.1.1-.2,0s.3,0,.4.1h.4c.2.1.2-.1.4,0S945.8,533.1,945.7,533.1Zm-1.5.6h0Zm4.8-.1c.1,0,.2,0,.1-.1H949Zm-2.7.4c.2,0,.4,0,.4-.2A.5.5,0,0,0,946.3,534Zm39.8-.1c0-.1-.2-.1-.2,0S986,534,986.1,533.9Zm-41.4.1H944c-.1.1-.3,0-.3.2s.6.1,1,.2.4-.1.4-.3S944.8,534.1,944.7,534Zm2.6.3h-.9c-.3-.1-1-.3-1.1.1s.5-.2.6,0-.2,0-.2.1h2.1C947.8,534.2,947.5,534.3,947.3,534.3Zm4.1.2h0Zm-2,.4c-.3-.1-.1.1,0,0Zm-.3,0h0S949.2,535,949.1,534.9Zm4.1,2.1c.1,0,.6-.1.5-.3S953.3,536.7,953.2,537Zm-.6.2h.3C952.9,537,952.6,537.1,952.6,537.2Zm2.1,0h0Zm.3,0c-.1.2.2-.1,0,0Zm-1.8.2h-.7c.1.4.6.3.8.5h.3a.1.1,0,0,1,.1-.1c.1-.1,0-.2.1-.4S953.3,537.5,953.2,537.4Zm-1.4.2c.1,0,.3,0,.3-.1Zm-2.9.6a.6.6,0,0,1-.6.1c0,.2-.2.2-.3.3h.1c.1.3-.3.1-.3.4l.6-.2h.6l1-.3c.2.1.5-.1.6-.1h1l.2-.3c-.3,0-.3-.3-.5-.3s-.4.2-.5.4l-.5.2-.9.2c0-.1-.2-.1-.1-.2s.6,0,.7-.3S949.3,538.3,948.9,538.2Zm-1.7.5v.2a.5.5,0,0,0-.4.2h-.6c-.3-.1-.2.2-.5.1l-.3.4c-.3-.2-.6,0-.9,0s.1.2,0,.3-1.3-.1-1.6.4a4.9,4.9,0,0,0,1.4-.3,3.4,3.4,0,0,0,1,0l.4-.2.9-.2.6-.2a.3.3,0,0,1,.3-.3c.1-.1.2.1.2-.1s-.2.1-.2-.1.2-.1.1-.2Zm-.6.2c.1,0,.4-.1.2-.2S946.5,538.8,946.6,538.9Zm-17.8.5h0Zm13.4.9h.5c0-.2.2-.1.2-.3s-.5.2-.6,0,.3-.1.4-.3-.5,0-.6.2S942.2,540.1,942.2,540.3Zm-14.3-.1h.1C927.9,540.1,927.8,540.1,927.9,540.2Zm12.6.1c0,.1-.2,0-.3,0h-.3l-.4.2H939c.3.1.7-.1,1-.1s.3,0,.4-.1a.1.1,0,0,0,.2,0C940.6,540.4,940.6,540.3,940.5,540.3ZM927,541.5Zm-.3,1.3c.2,0,.2.1.1.2s.2-.2.2-.4Zm1.9.4h0Zm-.1.8c.2,0,.4-.2.3-.2S928.5,543.8,928.5,544Zm14.8.9h0Zm-3.6.2h0Zm-.6.1h-.2C938.9,545.2,939.1,545.2,939.1,545.2Zm2,0c0,.2-.3.1-.4.2h.6c-.1-.1.1-.2,0-.2S941.2,545.1,941.1,545.2Zm-1.2.3c-.3,0-.6-.1-.7.1s.8,0,1-.2Zm-1,0Zm-10.8.2c.1,0,.1,0,.1-.1h-.1Zm10.7,0h.3C939,545.6,938.8,545.5,938.8,545.7Zm-.7.1H938C938,545.9,938.1,545.9,938.1,545.8Zm-8.4.1c-.1,0-.4-.1-.4.1s.7.1.8-.1S929.8,545.9,929.7,545.9Zm9.8.2h0C939.5,546.2,939.6,546.1,939.5,546.1Zm2.9,0Zm-12.5.4c-.2-.2-.1.1,0,0Zm1.5,0c-.3.1.1.1,0,0Zm8.5.1Zm-1.7.2c0,.1,0,.1.1.2s.1,0,.1-.1.2-.1.1-.2Zm-6.5.2c.1,0,.2,0,.2-.1S931.7,546.8,931.7,547Zm4.3.2c.2,0,.3,0,.4-.2S936,547,936,547.2Zm-5.7.2c.1,0,.2,0,.2-.1S930.2,547.3,930.3,547.4Z" transform="translate(-915.7 -527.6)"/>
    <path class="a" d="M921.8,538.6c-.2.1-.4-.2-.6,0s0-.2-.1-.2-.1.2-.2.2l-.7.4c-.1,0-.3,0-.3.1s-.2-.2-.4-.2.1-.3.3-.2.4-.6.9-.5.1-.2.2-.2-.1-.1,0-.2.1.1.2.1.1-.1.1-.2,0,.1.1.2.5-.1.5-.4.6.4.9.5-.3.2-.2.4-.3.2-.6.2v.2c0,.1.1.1.2.1s.1.1.1.2.1-.2.2-.2.1.1.1.2.3.4.5.5-.7.1-.9.2.2-.2.3-.3l-.5-.4C921.8,538.9,921.9,538.8,921.8,538.6Z" transform="translate(-915.7 -527.6)"/>
    <path class="a" d="M991.8,541c.2.2-.2.3-.3.2S991.8,541.2,991.8,541Z" transform="translate(-915.7 -527.6)"/>
    <path class="a" d="M988.8,541.7h0c0-.1,0,0-.1,0h.1Z" transform="translate(-915.7 -527.6)"/>
    <path class="a" d="M990.4,541.6h.2c0,.1-.2.1-.2.1S990.5,541.7,990.4,541.6Z" transform="translate(-915.7 -527.6)"/>
  </g>
</svg>
